<?xml version="1.0" encoding="UTF-8"?>
<svg xmlns="http://www.w3.org/2000/svg" viewBox="0 0 500 500" width="500" height="500">
<path d="M249.31 6.83C249.78 6.83 250.24 6.83 250.71 6.83C255.57 6.91 260.43 6.99 265.3 7.07C268.11 6.24 270.7 7.02 273.3 7.69C275.26 8.2 277.24 7.1 279.22 7.73C283.32 9.05 288.23 9.02 292.45 9.67C294.4 9.97 296.61 11.31 298.49 11.76C299.15 11.92 299.58 11.42 300.23 11.43C302.49 11.43 304.25 13.08 306.27 13.53C309.28 14.21 312.14 13.83 314.84 15.98C317.99 15.22 319.17 17.27 321.92 17.87C324.98 18.53 333.21 20.51 335.39 22.83C336.93 22.52 342.87 25.28 344.06 26.48C346.97 27.31 351.46 28.49 353.65 31.05C359.74 34.06 365.83 37.07 371.92 40.08C373.55 42.79 377.48 43.18 379.45 45.89C382.09 46.76 388.71 51.2 390.18 53.42C392.22 53.78 395.77 57 397.03 58.9C400.18 61.26 403.32 63.62 406.46 65.98C406.67 66.51 406.87 67.05 407.08 67.58C408.89 67.89 411.07 71.12 412.56 72.6C414.71 74.75 421.97 80.77 423.12 82.61C424.16 84.27 425.13 85.96 426.48 87.44C430.67 90.12 434.13 96.89 437.27 100.9C438.42 102.37 440.25 103.96 440.64 105.71C442.18 107.53 443.72 109.36 445.25 111.19C445.51 113.6 447.79 115.48 449.1 117.55C451.1 120.68 457.75 131.98 457.99 134.93C460.26 136.49 465.09 147.4 466.03 150.23C465.8 152.14 467.88 157.38 469.41 158.42C471.1 159.76 473.45 165.71 473.06 167.81C473.78 169.03 474.5 170.24 475.23 171.46C474.77 175.44 478.68 179.01 478.08 182.88C479.75 184.89 483.1 198.53 482.7 200.91C483.06 203.88 483.42 206.85 483.77 209.82C483.98 209.91 484.19 210 484.4 210.1C486.51 214.44 486.43 220 486.3 224.43C486.25 226.32 487.52 227.47 486.94 229.68C486.96 232.52 486.97 235.36 486.99 238.2C487.31 238.4 487.63 238.6 487.95 238.8C487.95 245.49 487.96 252.17 487.97 258.86C487.64 258.95 487.32 259.04 487 259.13C487 261.95 486.99 264.76 486.99 267.58C487.04 268.72 487.08 269.86 487.13 271C486.84 271.24 486.55 271.47 486.26 271.7C485.9 275.5 485.53 279.3 485.17 283.11C484.98 284.32 484.79 285.53 484.6 286.74C484.33 286.86 484.06 286.97 483.79 287.09C483.48 290.18 483.18 293.26 482.87 296.35C482.94 298.48 481.4 305.28 479.91 307.08C480.54 309.23 479.51 312.22 478.08 313.93C478.9 318.99 474.34 324.2 473.21 329.08C472.52 332.08 471.83 336.33 469.41 338.58C469.48 340.49 468.69 342.43 467.12 343.61C467.4 347.85 462.74 351.3 462.42 355.48C460.25 358.33 456.68 363.4 456.19 366.89C454.33 368.43 450.2 374.91 449.87 376.94C447.42 378.47 446.63 381.24 444.99 383.48C441.29 388.54 437.38 394.92 432.42 398.86C431.94 400.54 431.1 401.1 429.68 402.05C428.23 403.85 426.79 405.64 425.34 407.43C424.41 406.74 424.47 406.39 423.52 407.31C423.17 403.93 429.9 402.08 429.65 398.4C431.89 396.82 440.19 387.27 439.59 385.16C442.4 383.65 446.2 378.1 446.8 374.89C442 379.48 439.11 385.97 435 391.02C431.46 395.38 426.74 399.3 423.32 403.88C421.3 406.59 417.55 411.64 414.38 412.79C414.23 413.64 408.37 419.15 407.08 419.63C404.79 421.61 402.51 423.59 400.23 425.57C397.68 427.79 394.75 431.11 391.32 432.19C389.16 435.05 385.41 437.05 382.21 438.77C379.93 439.99 378.05 441.83 375.96 443.21C371.28 446.28 366.02 448.91 361.03 451.36C358.18 452.76 353.4 456.37 350.46 456.16C348.09 458.69 343.93 459.15 340.87 460.3C339.67 460.75 338.75 461.87 337.59 462.3C333.37 463.87 328.85 464.95 324.56 466.5C321.75 467.51 317.24 469.74 314.38 468.95C312.42 470.54 308.93 471.5 306.61 471.71C305.96 471.77 305.56 471.19 304.88 471.35C303.59 471.63 301.97 472.66 300.67 473.11C299.02 473.67 297.24 472.86 295.68 473.07C294.67 473.21 294.72 473.73 293.61 473.56C289.21 474.13 284.81 474.7 280.41 475.27C278.26 477.1 275.3 475.87 272.85 476.27C272.22 476.37 272.02 476.93 271.45 477.14C270.19 477.59 269.01 476.72 267.89 476.86C264.9 477.22 263.86 477.49 260.5 477.27C255.36 476.95 250.13 477.41 244.98 477.36C240.92 477.32 236.5 476.7 232.63 476.76C231.42 476.78 230.33 477.45 229 477.16C226.12 476.52 222.76 475.99 219.78 475.45C217.49 475.04 214.01 475.97 211.66 475.17C210.34 474.72 204.68 473.18 203.42 473.17C202.68 473.17 201.85 473.68 201.16 473.54C199.68 473.26 198.7 472.5 197.05 472.38C194.56 472.21 192.01 470 189.5 471.46C192.11 472.08 193.83 473.02 196.58 472.74C198.02 473.38 199.47 474.02 200.91 474.66C201.89 474.82 202.48 474.47 203.42 474.48C205.03 474.52 212.99 476.9 214.93 477.49C217.09 478.15 219.18 476.82 220.95 478.61C222.69 480.51 228.15 480.12 230.59 479.87C230.82 479.73 231.05 479.6 231.28 479.46C233.37 479.8 235.08 478.82 236.76 480.37C237.58 480.27 238.4 480.18 239.23 480.08C239.37 480.41 239.51 480.73 239.65 481.05C242.72 481.04 245.79 481.03 248.86 481.03C249.01 481.01 249.17 480.99 249.33 480.98C250.97 482.85 260.8 482.16 263.7 482.01C263.9 481.67 264.11 481.32 264.31 480.97C264.64 481 264.97 481.03 265.3 481.05C267.54 481.58 273.48 482.3 274.78 480.08C275.43 480.09 276.07 480.11 276.71 480.13C279.25 480.28 281.79 480.44 284.33 480.59C282.17 480.7 280.01 480.81 277.85 480.92C277.62 481.29 277.38 481.66 277.15 482.02C276.85 482 276.55 481.98 276.26 481.96C274.3 482.89 271.93 481.59 270.09 483.24C269.86 483.05 269.63 482.85 269.41 482.66C264.93 482.04 258.65 482.1 254.13 482.81C252.63 483.05 251.68 483.58 250 483.53C244.61 483.35 236.17 481.4 231.05 482.88C230.82 483 230.59 483.12 230.37 483.24C229.28 482.1 229.26 482 228.08 483.04C226.95 482.03 226.45 482.18 224.89 482.57C224.35 482.38 223.82 482.2 223.29 482.01C222.31 480.14 217.43 480.66 215.53 481.03C208.45 479.86 201.37 478.68 194.29 477.51C193.28 477.02 192.27 476.53 191.26 476.04C189.78 474.27 185.36 473.35 183.11 473.52C180.21 473.19 166.73 469.42 165.07 467.12C161.91 467.23 158.69 465.07 155.86 463.7C148.75 460.25 141.49 456.7 134.44 453.22C132.03 452.03 130.26 449.72 127.63 449.31C124.88 445.96 119.55 445.14 117.12 441.55C114.75 440.58 108.07 436.02 106.17 434.28C105.36 433.54 105.03 432.18 103.88 431.51C97.43 427.73 93.68 422.33 87.9 417.35C83.38 413.45 78.75 408.87 75.34 403.88C74.37 402.46 72.48 401.83 71.45 400.47C70.61 399.35 70.36 398.08 69.41 397.03C68.8 396.27 68.19 395.51 67.58 394.75C65.53 393.11 59.72 385.6 59.36 383.33C56.3 381.26 56.05 377.17 52.93 375.11C52.72 372.05 43.62 361.11 43.84 357.76C41.73 356.14 37.16 346.95 36.99 344.52C34.63 342.57 33.63 338.71 32.65 335.92C31.35 332.22 29.68 329.13 28.56 325.48C28.36 324.79 27.39 324.24 27.13 323.58C25.46 319.46 25.18 314.53 22.46 310.73C20.68 302.89 18.89 295.05 17.11 287.21C17.43 285.87 16.42 277.42 15.6 276.72C13.13 273.95 14.56 268.86 14 265.61C13.85 264.72 13 264.41 13.11 263.24C13.2 262.17 13.7 261.14 13.68 260.05C13.64 257.91 12.41 256.64 13.05 254.34C13.05 245.81 13.04 237.29 13.04 228.77C12.36 226.23 13.74 225.05 13.9 222.81C13.97 221.86 13.13 220.84 13.11 219.86C13.1 218.91 13.88 218.68 14.01 217.95C14.48 215.1 13.37 208.72 15.75 206.69C15.34 206.27 15.67 201.3 15.95 200C16.35 198.18 17.11 196.44 17.66 194.66C17.92 193.8 17.53 192.52 17.77 191.55C18.67 187.94 19.64 180.63 21.92 177.85C21.3 172.62 25.62 167.34 26.79 162.24C28.15 156.27 31.13 151.08 33.65 145.35C36.27 139.4 38.99 132.9 42.66 127.38C46.75 121.23 49.07 113.9 54.57 108.68C55.06 105.2 59.42 103.45 59.78 100.23C61.01 99.01 62.24 97.79 63.47 96.58C64.64 93.14 68.8 88.76 72.07 86.76C72.1 86.99 72.12 87.21 72.15 87.44C72.45 87.54 72.75 87.65 73.06 87.75C72.18 90.03 69.82 91.66 68.32 93.62C64.16 99.03 55.37 109.6 52.97 115.75C54.74 115.57 60.26 106.18 61.89 104.12C68.08 96.32 73.84 89.41 81.05 82.19C83.34 79.9 86.29 75.24 89.27 74.43C92.16 69.87 104.78 60.55 109.6 57.06C112.45 55 117.06 53.23 118.95 50.09C124.91 49.32 131.52 40.48 137.67 40.18C141.12 37.87 154.22 30.51 157.76 30.59C159.5 28.86 165.27 26.52 167.35 26.94C169.65 24.47 173.52 24.94 176.4 23.62C182.85 20.65 189.99 20.23 196.59 17.85C197.68 17.46 199.1 18.02 200.14 17.66C202.58 16.83 205.27 15.47 207.99 15.52C208.9 15.53 209.79 16.18 210.72 15.97C212.17 15.64 211.98 14.7 213.47 15.77C214.73 13.84 217.02 14.92 218.86 14.47C221.68 13.77 223.15 14.28 225.78 14.1C226.94 14.03 227.53 12.92 229 13.11C231.16 13.38 232.91 13.92 235.16 13.53C245.5 13.53 255.84 13.53 266.17 13.53C266.98 13.6 267.78 13.67 268.58 13.74C270.58 14.78 276.06 15.07 277.7 13.87C279.25 13.69 280.32 13.59 281.51 14.61C283.57 14.88 285.64 15.15 287.71 15.41C288.45 16.48 296.48 17.34 298.17 17.09C301.75 17.63 305.33 18.17 308.9 18.71C310.25 20.3 312.77 20.1 314.85 20.66C318.26 21.56 326 24.98 328.77 24.43C325.99 23.6 323.48 21.84 320.69 21.09C316.32 19.91 310.82 19.37 307.08 16.89C304.61 16.78 294.81 14.95 292.02 14.14C290.59 13.72 288.78 12.73 287.33 12.53C286.58 12.42 285.99 13.1 285.17 12.86C284.73 12.72 284.58 12.12 284.16 12.03C281.19 11.38 276.99 12.61 274.34 10.43C272.76 9.2 271.08 9.93 269.28 9.46C264.89 8.31 252.97 7.93 248.4 8.7C246.17 8.72 244.25 8.73 242.01 8.69C239.51 8.61 237.02 8.53 234.52 8.45C234.72 7.98 234.91 7.5 235.11 7.03C235.28 7.05 235.45 7.07 235.62 7.09C240.18 7 244.75 6.91 249.31 6.83ZM239.77 19.03C237.71 19.43 235.57 18.81 234.02 20.18C231.66 20.23 229.3 20.28 226.94 20.33C225.03 19.68 219.78 19.74 218.43 21.46C216.88 22.95 215.01 22.04 213.1 22.52C209.19 23.49 203.68 25.61 199.77 25.11C198.4 25.83 197.03 26.56 195.66 27.28C194.7 27.37 193.89 27.05 193.01 27.1C188.71 27.34 184.13 32.33 179.68 31.05C177.45 32.88 169.56 36.18 166.89 36.07C165.41 37.76 163.85 37.3 162.11 38.18C159 39.75 146.8 47.19 144.06 47.03C136.07 52.13 128.08 57.23 120.09 62.33C118.34 63.62 116.59 64.92 114.84 66.21C113.93 66.97 113.01 67.73 112.1 68.49C110.63 69.82 109.13 71.92 106.85 72.37C106.55 74.09 105.26 74.34 103.88 75.34C102.97 76.1 102.05 76.86 101.14 77.63C99.28 79.68 97.42 81.74 95.55 83.79C92.89 84.69 92.41 87.83 89.95 88.36C89.75 89.79 89.77 89.76 88.36 89.95C88.14 91.25 80.03 100.02 79 100.23C78.08 101.45 77.17 102.66 76.26 103.88C70.09 112.79 63.93 121.69 57.76 130.59C57.03 134.75 53.04 138.43 51.42 142.02C50.57 143.9 50.64 145.31 48.86 146.8C48.73 148.35 48.34 149.8 47.03 150.91C46.77 152.13 46.51 153.35 46.26 154.57C45.75 154.99 45.25 155.42 44.75 155.84C44.37 156.18 43.99 156.52 43.61 156.86C43.68 156.02 43.75 155.18 43.82 154.34C43.97 148.84 49.62 144.63 49.77 139.04C48.02 142.16 46.27 145.28 44.52 148.4C44.47 149.09 44.43 149.77 44.38 150.46C43.59 151.52 42.8 152.59 42.01 153.65C41.89 156.69 38.73 161.86 37.58 164.7C37.33 165.33 37.76 166.28 37.49 166.88C37.22 167.47 36.57 167.86 36.07 168.26C36.24 170.41 35.58 172.14 34.25 173.74C34.28 176.18 33.29 178.6 31.96 180.59C31.66 181.35 31.35 182.12 31.05 182.88C31.22 183.79 31.4 184.7 31.57 185.62C29.68 188.31 29.98 191.21 29.13 194.28C28.54 196.41 27.47 198.42 27.1 200.31C26.62 202.71 27.16 206.04 26.03 208.45C25.77 208.99 25.26 209.22 25.13 209.83C24.93 210.7 25.57 211.3 25.64 212.1C25.75 213.38 23.92 222.34 23.29 222.93C21.37 225.34 21.61 241.23 22.17 244.75C22.17 247.34 22.17 249.92 22.17 252.51C21.36 257.44 20.95 269.56 23.21 273.93C24.46 275.33 26.11 288.11 25.63 289.5C25.61 291.56 25.87 297.39 27.4 298.56C28.54 299.65 31.29 311.63 31.05 313.47C32.77 315.05 34.41 321.11 34.27 323.52C35.67 324.57 36.17 326.36 36.07 328.08C37.7 330.07 40.37 336.07 40.18 338.58C41.5 339.81 42.32 341.36 42.01 343.15C43.7 344.66 46.7 350 46.58 352.28C50.67 357.41 54.8 368.99 59.85 372.37C60.02 374.66 62.25 376.01 63.51 377.87C64.49 379.34 65.18 380.93 66.21 382.42C66.88 383.4 68.34 383.81 68.94 384.72C70.28 386.74 74.75 391.81 75.34 393.38C81.27 397.98 88.03 408.97 94.75 412.33C94.72 410.68 92.53 409.2 91.32 407.99C88.06 404.73 85.18 401.25 82.19 397.95C80.87 396.99 80.68 395.39 79.22 395.51C74.58 389.02 69.94 382.52 65.3 376.03C63.81 375.03 63.27 373.68 62.79 372.15C60.89 371.05 59.65 368.05 59.13 366.21C56.46 364.65 55.75 361.01 54.39 358.46C50.41 351 45.4 343.18 43.17 335.16C43.31 334.47 43.46 333.78 43.61 333.08C44.29 334.05 44.98 335.01 45.66 335.98C46.12 337.15 46.58 338.32 47.03 339.5C49.57 341.67 51.68 348.49 53.25 351.58C55.05 355.14 57.86 358.49 59.84 361.91C60.8 363.56 61.37 365.55 62.36 367.11C63.45 368.83 65.81 370.79 66.21 372.83C67.55 373.66 67.8 374.25 68.26 375.8C69.96 377.08 71.82 379.03 72.15 381.05C75.74 383.56 79.48 390.4 82.65 393.84C83.56 394.9 84.47 395.97 85.39 397.03C85.92 397.24 86.45 397.44 86.99 397.64C92.77 403.6 98.55 409.56 104.34 415.53C111.19 420.85 118.04 426.18 124.89 431.51C128.08 431.96 135 439.08 139.95 440.2C142.26 442.69 153.96 448.92 156.85 449.18C163.09 452.12 169.33 455.05 175.57 457.99C177.24 457.71 179.34 458.46 180.59 459.82C182.6 459.41 192.2 462.57 193.84 463.93C195.81 464.15 197.79 464.38 199.77 464.61C203.64 466.73 212.48 466.25 215.14 468.95C218.77 469.33 222.4 469.72 226.03 470.1C227.02 470.33 228.01 470.55 229 470.78C231.12 470.49 232.7 469.66 234.47 471.23C236.22 471.17 237.96 471.11 239.71 471.05C240.49 472.71 242.36 472.27 244.06 472.27C247 472.25 256.28 473.2 257.9 471.03C259.94 470.77 262.14 471.13 264.07 470.94C265.16 470.83 266.08 470.05 267.35 470.19C268.47 470.31 269.36 470.95 270.55 470.77C272.54 470.45 277.98 468.44 279.68 468.46C281.02 468.47 282.32 469.33 283.78 468.94C287.55 467.91 291.64 467.06 295.22 465.82C299.03 464.51 304.45 465.16 307.53 462.63C311.44 462.34 315.77 459.07 319.41 459.82C321.21 457.88 323.58 458.22 325.8 457.53C327.3 456.05 328.87 455.8 330.82 455.71C332.33 454.14 335.12 452.66 337.21 452.97C338.22 451.8 338.56 451.54 339.95 451.6C341.29 450.21 343.92 448.81 345.89 448.86C346.84 447.48 348.09 447.11 349.54 447.03C351.03 445.33 355.31 442.77 357.31 442.92C359.06 440.52 365.89 436.86 368.95 435.84C372.98 433.03 377.02 430.21 381.05 427.4C383.64 425.42 386.23 423.44 388.81 421.46C390.64 419.11 397.43 415.51 397.66 413.01C401.55 410.97 409.4 403.57 412.33 399.77C413.75 397.93 414.84 396.16 416.89 394.75C418.2 393.33 418.43 391.1 420.55 390.64C422.16 386.3 428.74 382.37 429.7 377.85C434.24 373.96 436.95 367.99 439.97 362.86C442.36 358.79 446.02 354.72 447.01 350C447.93 348.93 448.85 347.87 449.77 346.8C449.73 345.41 449.92 344.98 451.14 344.06C453.27 339.35 455.4 334.63 457.53 329.91C457.84 329.03 458.14 328.15 458.45 327.27C458.83 326.79 459.21 326.32 459.59 325.84C459.67 326.51 459.74 327.18 459.82 327.85C460.57 329.8 458.33 331.76 458.58 334.02C455.43 336.84 454.74 342.31 452.87 345.79C451.93 347.54 449.89 350.21 450.23 352.28C451.14 351.57 455.82 341.99 455.57 340.87C459.51 337.44 460.73 326.14 463.93 323.52C464.13 318.27 469.21 307.66 470.67 301.97C471.3 299.5 470.56 296.25 472.68 294.12C473.25 291.21 473.82 288.3 474.39 285.39C473.89 282.91 476.16 270.44 476.96 267.18C478.9 265.17 478.3 260.67 477.87 257.99C476.76 253.43 478.52 249.24 478.54 244.98C478.58 237.92 476.81 231.23 477.87 224.2C478.39 221.48 478.98 216.04 477.17 213.81C476.12 212.67 473.86 198.73 474.39 197.26C474.54 195.2 474.07 189.61 472.6 188.26C471.26 184.48 469.93 180.71 468.59 176.94C468.71 176.03 468.83 175.11 468.95 174.2C468.65 173.44 468.34 172.68 468.04 171.92C466.44 169.5 463.73 162.8 463.93 160.05C462.6 159.04 459.7 151.52 459.82 150C456.09 142.92 452.36 135.84 448.63 128.77C446.45 126.69 442.94 121.73 442.01 118.95C440.11 116.29 438.2 113.62 436.3 110.96C435.16 109.51 434.02 108.07 432.88 106.62C430.85 105.25 428.12 102.04 427.4 99.77C422.6 94.98 417.81 90.18 413.01 85.39C413.9 89.66 425.4 97.23 426.48 102.05C428.19 103.37 431.19 106.8 431.51 108.9C436.61 112.27 438.15 121.81 442.98 124.89C443.83 128.79 446.96 132.36 448.88 135.88C451.12 139.97 452.55 144.37 454.57 148.56C455.97 151.47 458.09 154.54 457.99 157.76C458.47 158.75 458.95 159.74 459.44 160.73C459.33 161.36 459.23 161.98 459.13 162.61C457.99 160.32 456.85 158.03 455.71 155.74C454.14 154.57 452.84 151.92 452.97 150C450.79 148.12 450.1 144.33 448.65 141.85C444.86 135.4 441.3 128.58 436.96 122.36C435.23 119.89 434.07 116.33 431.44 114.84C431.26 112.05 427.83 110.73 427.4 107.99C420.85 100.53 414.31 93.07 407.76 85.62C402.82 81.13 397.87 76.64 392.92 72.15C392.16 71.54 391.4 70.93 390.64 70.32C389.73 69.56 388.81 68.8 387.9 68.04C386.56 67.84 380.92 63.26 379.91 61.87C377.15 60.95 375.82 58.85 373.5 57.36C368.54 54.15 362.16 50.03 357.06 47.3C354.27 45.81 345.3 42.37 343.61 40.18C341.78 40.29 340.24 39.29 339.04 37.9C335.25 37.69 328.42 34.41 324.81 32.65C322.7 31.62 320.27 31.95 318.95 30.14C315.2 30.38 310.85 27.24 306.62 27.3C305.25 26.57 303.88 25.84 302.51 25.11C298.21 25.6 293.73 23.62 289.64 22.51C288.39 22.17 286.86 22.8 285.63 22.36C284.66 22.01 283.75 21.32 282.79 21.16C279.51 20.64 273 21.58 270.55 19.31C269.54 20.18 265.8 19.64 264.26 18.92C263.13 17.66 260.43 17.98 258.68 17.99C255.44 18.01 241.26 17.22 239.77 19.03ZM18.06 227.8C17.68 227.9 17.31 227.99 16.94 228.08C17.07 231.23 17.21 234.37 17.35 237.51C17.43 238.8 17.5 240.09 17.58 241.38C17.67 240.21 17.77 239.05 17.86 237.88C18.11 237.81 18.36 237.74 18.61 237.67C18.67 234.99 18.74 232.31 18.8 229.62C18.64 228.32 19.39 216.73 19.72 215.77C19.91 215.2 20.42 214.99 20.5 214.37C20.66 213.01 20.14 211.28 20.53 209.83C20.75 209 21.58 208.23 21.77 207.45C22.25 205.37 22.42 202.24 22.39 200.23C25.52 196.53 23.82 190.96 26.94 186.99C26.21 184.2 27.85 182.56 28.72 180.12C28.95 179.48 28.62 178.51 28.79 177.87C29.16 176.48 30.53 175.09 30.77 173.66C31.48 169.53 34.35 161.35 36.99 158.22C36.89 155.92 38.55 154.29 39.5 152.21C41.09 148.74 42.38 145.18 44.03 141.74C45.59 138.49 47.86 135.94 49.27 132.67C50.19 130.55 52.77 128.48 52.93 126.26C54.64 124.86 56.89 121.92 57.02 119.86C57.8 119.25 58.58 118.65 59.36 118.04C60.11 116.51 60.87 114.99 61.62 113.47C62.24 113.01 62.85 112.56 63.47 112.1C63.97 109.46 74.07 98.12 76.68 95.66C78.17 94.25 78.75 92.07 80.59 91.78C81.23 88.69 90.29 82.08 92.69 79.68C94.01 78.36 95.22 76.12 97.03 75.8C97.87 75.11 98.71 74.43 99.54 73.74C99.78 72.16 101.28 71.06 102.97 70.78C104.58 68.21 108.26 66.23 110.73 64.38C112.78 62.85 114.46 60.29 116.83 59.09C121.51 56.73 126.77 52.98 131.05 49.54C129.97 48.73 127.76 50.29 126.64 51.07C123.29 53.41 116.44 56.82 114.38 59.83C112.28 59.99 111.47 61.76 109.74 62.95C108.55 63.78 107.09 64.31 105.95 65.11C103.13 67.11 99.83 71.49 96.58 72.6C94.96 75.1 91.74 77.32 89.42 79.2C88.67 79.8 88.5 80.56 87.94 81.29C87.47 81.89 86.71 81.87 86.19 82.25C82.41 85.07 79.03 89.58 76.05 92.92C75.06 94.03 73.42 94.81 72.6 96.12C69.75 100.65 65.5 104.27 62.37 108.69C61.03 110.59 60.56 112.53 58.45 113.93C53.58 121.54 48.71 129.15 43.84 136.76C43.71 138.82 39.75 146.59 37.9 148.17C37.8 149.76 37.44 151.09 36.07 152.28C36.26 156.26 30.41 162.23 31.59 165.53C30.8 166.59 30.01 167.66 29.22 168.72C29.55 170.62 28.78 172.84 27.4 174.2C27.35 178.64 24.92 183.55 23.36 187.92C22.29 190.9 23.13 194.02 21 196.58C21.85 199.67 19.99 204.9 19.29 208C18.79 210.2 19.68 212.62 19.15 214.84C18.21 218.8 17.64 223.6 18.06 227.8ZM281.23 102.82C304.99 102.87 328.75 102.93 352.51 102.98C358.42 104.73 360.5 108.4 362.4 113.84C362.81 115.03 363.62 116.6 363.55 118.04C363.52 118.86 363.02 119.5 363.01 120.32C363.01 121.81 364.14 121.69 363.5 123.29C362.76 126.1 364.27 129.01 364.51 131.74C365.13 138.53 364.44 145.47 364.5 152.28C364.53 154.7 363.33 157.14 364.14 159.36C364.7 161.91 363.43 163.67 363.03 166C362.86 166.97 363.5 167.77 363.49 168.72C363.44 172.57 361.43 178.03 358.22 180.37C359.97 182.27 361.72 184.17 363.47 186.07C368.21 189.76 370.24 204.22 372.15 210.29C372.97 212.89 371.22 216.14 373.06 218.04C372.92 218.57 372.78 219.1 372.64 219.63C372.32 222.89 373.34 225.88 373.57 229C374.04 235.22 374.45 244.83 373.46 250.91C373.28 252.02 372.7 252.71 372.65 253.88C372.68 254.26 372.71 254.64 372.74 255.02C371.93 255.48 371.13 255.94 370.32 256.39C370.02 256.66 369.71 256.93 369.41 257.2C369.34 260.81 369.27 264.42 369.2 268.04C369.82 270.13 368.26 271.59 368.13 273.74C365.04 276.77 362.81 282.09 357.99 282.66C354.35 283.04 350.71 283.41 347.07 283.79C346.94 284.02 346.81 284.25 346.68 284.47C347.1 286.83 347.52 289.19 347.95 291.55C349.74 291.53 351.9 292.23 353.2 293.61C357.18 293.68 363.08 296.37 366.58 298.85C368.88 300.48 369.39 303.23 371.67 304.79C371.98 305.56 372.29 306.32 372.61 307.08C372.62 308.52 372.63 309.97 372.63 311.42C372.63 317.05 372.63 322.68 372.63 328.31C372.82 328.88 372.57 343.6 372.23 344.98C372.04 345.73 371.49 346.1 371.31 346.82C371.08 347.78 371.5 349.02 371.26 350C370.68 352.32 369.91 354.9 369.46 357.32C369.25 358.39 369.78 359.82 369.4 360.94C366.41 370.05 364.66 379.87 360.94 388.88C359.56 392.22 352.77 402.74 352.55 405.25C350.97 406.17 347.48 410.1 347.5 411.64C346.05 412.94 344.6 414.23 343.15 415.52C341.48 416.13 339.8 416.74 338.13 417.35C336.57 419.02 331.11 420.16 329.27 419.94C327.58 418.28 321.56 419.22 318.95 419.25C309.52 419.38 300.07 419.26 290.64 419.26C261.57 419.24 232.5 419.26 203.42 419.27C194.75 419.27 186.06 419.41 177.4 419.27C174.72 419.22 167.67 418.32 165.75 418.95C164.92 418.92 164.08 418.89 163.24 418.86C160.05 416.87 156.85 414.88 153.65 412.9C149.3 406.72 145.03 400.98 141.61 394.11C140.59 392.08 138.35 388.89 138.81 386.53C137.04 385.12 137.14 383.54 136.83 381.59C136.63 380.34 135.29 378.57 134.73 377.4C134.38 376.67 134.75 375.86 134.56 375.2C133.44 371.38 132.46 367.8 131.67 363.78C131.33 362.06 130.23 361.28 130.85 359.36C131.34 357.15 131.14 353.57 129.76 351.66C128.38 350.15 127.04 341.78 127.33 339.5C127.61 337.25 128.63 334.9 126.99 333.11C128.33 331.52 126.95 330.91 127.37 329.22C127.37 323.14 127.37 317.05 127.37 310.96C127.45 309.51 127.53 308.07 127.61 306.62C127.81 306.01 128.01 305.4 128.2 304.79C130.51 303.37 131.14 300.46 133.42 298.85C136.86 296.41 142.81 293.67 146.8 293.61C148.16 292.16 149.57 292.07 151.37 291.78C152.02 289.66 152.67 287.54 153.33 285.42C153.6 285.18 153.88 284.94 154.15 284.7C152.91 282.81 145.74 283.16 143.38 283.21C141.6 283.73 139.03 281.47 137.31 280.59C135.49 278.31 133.67 276.03 131.85 273.74C131.44 272.68 131.03 271.61 130.62 270.55C130.68 269.86 130.74 269.18 130.8 268.49C130.73 264.73 130.66 260.96 130.59 257.2C130.29 256.93 129.98 256.66 129.68 256.39C129.03 256.09 128.37 255.78 127.72 255.48C127.41 255.02 127.11 254.57 126.8 254.11C126.53 253.65 126.25 253.2 125.97 252.74C126.14 252.51 126.3 252.28 126.46 252.05C126.7 241.1 126.93 230.14 127.16 219.18C128.08 217.49 127.3 215.52 127.39 213.47C127.5 210.94 130.67 198.18 131.96 196.58C131.28 190.8 136.62 184.43 141.32 181.28C142.14 180.1 140.41 178.61 139.28 177.85C138.38 174.13 136.62 170.15 136.47 165.98C136.43 164.55 137.16 163.36 136.99 161.87C136.82 160.42 136.03 159.97 136.5 158.45C136.26 150.51 136.03 142.57 135.8 134.63C135.44 130.64 137.37 126.14 136.99 123.52C136.73 121.8 135.71 119.62 137.67 118.49C136.62 116.72 137.73 110.95 139.73 109.59C142.46 107.42 145.19 105.25 147.92 103.08C171.99 102.99 196.07 102.91 220.14 102.82C220.73 102.26 221.32 101.7 221.92 101.14C222.22 100.38 222.53 99.62 222.83 98.86C222.35 96.41 225.23 89.36 227.4 87.9C228.69 86.27 229.98 84.63 231.28 83C233.11 82.7 235.7 80.39 237.69 80.39C243.32 80.37 252.77 78.28 258.68 79.86C259.38 80.05 259.82 80.72 260.52 80.81C261.68 80.95 262.5 80.22 263.7 80.83C265.73 81.86 268.02 82.9 269.78 84.22C272 85.88 272.58 88.7 275.02 90.18C275.22 92.87 277.72 96.07 277.17 98.86C277.78 99.92 278.39 100.99 279 102.05C279.74 102.31 280.49 102.56 281.23 102.82ZM241.73 85.38C239.93 86.12 238.13 86.61 236.37 87.43C234.73 88.21 233.75 89.77 231.96 90.18C231.35 91.25 230.75 92.31 230.14 93.38C229.3 96.35 228.46 99.32 227.63 102.28C230.06 102.28 232.5 102.28 234.93 102.28C235.19 100.99 235.45 99.7 235.71 98.4C237.55 96.09 238.53 92.42 241.94 91.68C246.84 91.5 251.73 91.32 256.62 91.14C258.33 91.08 258.71 92.18 260.05 93.15C264.23 96.2 263 98.61 265.07 102.28C267.5 102.28 269.94 102.28 272.37 102.28C271.54 99.32 270.7 96.35 269.86 93.38C268.49 91.7 267.12 90.03 265.75 88.36C263.15 87.42 260.55 86.48 257.95 85.55C256.32 83.74 244 84.09 241.73 85.38ZM245.3 95.89C244.21 96.73 243.11 97.56 242.01 98.4C241.7 99.62 241.4 100.84 241.1 102.05C242.2 103.12 257.8 103.12 258.9 102.05C258.6 100.84 258.3 99.62 257.99 98.4C257.51 97.92 257.02 97.44 256.54 96.96C255.61 94.72 247.31 95.01 245.3 95.89ZM148.02 108.68C147.2 109.51 145.97 109.53 145.21 110.73C143.49 113.42 143.77 116.1 143.42 118.95C143.32 119.73 142.63 120.05 142.52 120.79C142.1 123.43 142.93 127.23 141.21 129.69C140.05 131.28 140.55 134.29 140.56 136.3C140.56 140.46 139.32 153.81 141.18 156.68C141.23 156.93 141.27 157.19 141.32 157.44C141.6 158.01 141.87 158.57 142.15 159.13C141.95 159.36 141.75 159.59 141.55 159.82C140.71 162.14 141.77 167.84 142.92 169.83C143.35 170.83 143.78 171.83 144.21 172.83C144.24 173.44 144.27 174.05 144.29 174.66C144.9 175.11 145.52 175.57 146.13 176.03C146.25 176.38 146.38 176.73 146.5 177.07C146.75 177.49 147.01 177.91 147.26 178.33C148.5 178.48 149.42 179.02 150.56 179.27C153.04 179.8 156.14 179.27 158.68 179.27C165.22 179.25 171.77 179.28 178.31 179.27C182.16 179.26 188.2 180.38 191.7 178.77C193.33 175.49 192.26 166.75 192.26 162.79C192.26 150.15 192.26 137.52 192.26 124.89C192.26 121.25 193.33 110.86 191.82 108.18C189.62 106.83 185.07 107.63 182.42 107.62C174.35 107.58 166.29 107.62 158.22 107.62C155.84 107.62 149.43 106.64 148.02 108.68ZM197.24 108.19C195.12 110.67 196.48 117.96 196.48 121.23C196.48 130.06 196.48 138.89 196.48 147.72C196.48 151.57 195.63 156.72 196.73 160.34C196.73 160.77 196.73 161.19 196.73 161.62C196.73 165.9 196.73 170.17 196.73 174.45C196.76 175.51 196.79 176.57 196.82 177.63C197.04 178.14 197.27 178.65 197.49 179.17C199.83 179.5 211.28 179.94 212.54 178.5C213.98 176.86 213.13 164.71 213.12 161.87C213.11 149.09 213.12 136.3 213.12 123.52C213.12 119.71 214.17 111.09 212.59 107.99C207.47 108.06 202.35 108.13 197.24 108.19ZM217.87 108.22C217.87 131.51 217.86 154.79 217.85 178.08C218.07 178.48 218.28 178.89 218.49 179.29C239.5 179.29 260.5 179.28 281.51 179.28C281.75 178.87 281.98 178.46 282.22 178.05C282.13 155.23 282.04 132.4 281.95 109.58C282.01 109.13 282.07 108.67 282.13 108.22C280.48 106.86 271.41 107.61 268.72 107.62C256.55 107.68 244.37 107.63 232.19 107.64C229.38 107.64 219.59 106.81 217.87 108.22ZM303.27 174.85C303.27 167.28 303.27 159.7 303.27 152.13C303.27 146.6 303.27 141.07 303.27 135.54C303.27 127.2 303.27 118.85 303.27 110.51C303.24 109.67 303.21 108.83 303.18 107.99C297.9 107.99 292.61 107.99 287.33 107.99C285.5 112.15 286.86 119.39 286.86 123.97C286.86 136.3 286.86 148.63 286.86 160.96C286.86 165.52 285.68 174.88 287.61 178.77C290.23 179.96 300.3 179.8 303.07 178.77C303.14 177.46 303.2 176.16 303.27 174.85ZM308.18 108.18C308.12 131.61 308.05 155.03 307.99 178.46C310.45 180.15 314.68 179.38 317.58 179.35C325.19 179.26 332.8 179.23 340.41 179.28C342.66 179.29 348.89 180.27 350.22 178.54C351.21 178.23 352.2 177.93 353.2 177.63C357.51 172.3 357.12 168.26 358.89 161.86C359.2 160.75 358.44 159.73 358.35 158.68C358.2 157.1 358.79 153.72 359.08 152.09C361.02 151.15 360.26 138.26 360.19 135.39C359.82 135.04 359.45 134.69 359.07 134.34C359.87 132.87 358.19 130.08 358.36 128.08C358.46 126.9 359.26 125.69 358.89 124.44C358.11 121.86 356.65 113.39 355.75 111.92C354.94 110.62 353.52 109.75 352.45 108.68C351.18 106.7 344.53 107.63 342.24 107.63C334.17 107.63 326.1 107.68 318.04 107.61C315.27 107.59 310.48 106.73 308.18 108.18ZM150.17 184.14C147.19 184.77 144.33 185.95 141.78 187.67C140.71 188.4 140.61 189.6 139.5 190.41C138.27 193.08 137.48 196.51 137.22 199.32C135.86 202.16 135.37 205.15 134.38 208.08C134.04 209.08 134.51 210.01 133.99 210.99C131.92 213.71 131.51 219.8 132.18 223.29C132.74 225.49 133.02 228.61 131.51 230.37C131.55 230.9 131.59 231.43 131.63 231.97C130.23 233.17 130.07 248.31 131.43 249.8C131.68 250.4 131.94 251 132.19 251.6C133.33 251.22 134.47 250.84 135.62 250.46C136.45 248.5 137.87 246.85 138.67 244.89C140.3 240.88 141.35 236.63 142.77 232.56C143.88 229.38 143.7 223.39 144.85 219.88C145.62 217.54 146.78 214.74 146.91 212.56C148.63 210.97 149.5 208.46 151.53 207.02C153.85 205.37 160.91 201.78 163.7 201.83C164.08 201.14 164.46 200.46 164.84 199.77C164.1 197.19 165.52 194.24 166.74 191.85C168.07 190.26 168.87 185.72 167.94 183.79C162.01 183.91 156.09 184.02 150.17 184.14ZM174.49 184.02C173.59 186.37 173.79 188.64 172.15 190.64C172.38 193.04 170.81 200.2 168.95 202.05C169.05 202.97 169.16 203.88 169.26 204.79C167.41 207.32 168.1 210.25 167.12 213.04C166.68 214.28 165.77 215.5 165.44 216.75C165.15 217.84 165.54 219.12 165.2 220.31C164.74 221.9 163.52 223.29 163.3 224.97C163.09 226.61 163.31 228.33 163.01 229.91C163.85 231.35 164.69 232.8 165.53 234.25C168.04 236.3 170.55 238.36 173.06 240.41C178.01 243.23 182.95 246.04 187.9 248.86C189.54 248.73 201.24 252.96 202.05 253.88C202.34 253.58 202.63 253.27 202.92 252.97C204.59 251.62 203.91 248.89 203.85 246.8C203.71 242.37 203.21 236.8 204.34 232.52C210.2 232.33 216.06 232.15 221.92 231.96C222.15 231.88 222.37 231.8 222.6 231.73C222.68 232.41 222.76 233.1 222.84 233.79C221.73 239.31 222.56 245.73 222.56 251.37C222.56 253.31 222.06 256.62 223.29 257.98C223.59 258.16 223.88 258.34 224.18 258.52C225.58 260.12 233.36 259.93 235.62 259.75C237.29 259.79 238.97 259.82 240.65 259.86C242.74 260.89 257.35 260.85 258.96 259.65C260.77 259.66 262.58 259.66 264.38 259.66C266.9 259.73 274.49 260.4 276.11 258.45C276.31 258.29 276.51 258.14 276.71 257.99C278.12 256.56 277.43 252.98 277.43 250.91C277.43 245.07 276.44 238.09 277.85 232.43C283.79 232.44 289.73 232.45 295.66 232.45C297.03 236.78 296.21 242.72 296.07 247.26C296 249.32 295.43 251.81 297.1 253.04C297.38 253.32 297.66 253.6 297.95 253.88C298.97 253.04 310.84 248.75 312.1 248.86C313.17 247.49 314.3 247.11 315.75 247.03C319.48 244.82 323.21 242.62 326.94 240.41C329.38 238.43 331.81 236.45 334.25 234.47C335.16 232.95 336.07 231.43 336.99 229.91C336.68 228.32 336.87 226.62 336.7 224.97C336.53 223.31 335.27 221.89 334.81 220.31C334.47 219.12 334.84 217.84 334.56 216.75C334.23 215.5 333.32 214.28 332.88 213.04C331.91 210.25 332.57 207.33 330.75 204.79C330.85 203.88 330.95 202.97 331.05 202.05C329.17 200.18 327.62 193.09 327.85 190.64C325.98 188.9 326.47 186.29 325.53 184.02C275.18 184.02 224.83 184.02 174.49 184.02ZM333.26 192.27C334.89 193.88 335.75 197.71 335.16 199.77C335.54 200.46 335.92 201.14 336.3 201.83C340.01 201.73 345.3 205.09 348.47 207.02C350.35 208.17 351.43 211.01 353.06 212.56C353.18 213.94 353.84 214.8 354.34 216.21C355.16 218.51 354.44 221.63 355.39 223.89C356.7 226.98 357.04 230.31 357.31 233.56C358.43 234.16 361.29 243.58 361.19 244.98C362.25 246.8 363.32 248.63 364.38 250.46C365.37 250.99 366.36 251.52 367.35 252.05C367.69 251.12 368.03 250.19 368.37 249.25C369.93 247.94 369.9 234.6 368.37 233.36C368.41 232.67 368.45 231.97 368.49 231.28C367.1 229.06 367.28 226.28 367.83 223.74C368.25 220.9 368.57 215.46 366.67 213.27C364.9 211.82 366.26 210.05 365.62 208.08C363.66 202.03 362.22 196.17 360.05 189.95C359.1 189.26 359.06 188.68 358.42 187.9C356.66 185.77 352.61 184.89 350.17 184.02C348.25 182.95 333.71 183.08 331.74 184.14C331.32 185.92 331.93 191.12 333.26 192.27ZM136.07 257.08C134.8 258.92 135.28 270.59 137.44 272.07C138.72 272.78 139.22 273.21 139.27 274.66C140.65 274.9 140.87 275.3 141.55 276.48C142.9 277.19 144.25 277.9 145.6 278.61C146.89 280.36 153.07 279.86 154.84 278.77C154.91 277.93 154.98 277.09 155.05 276.26C154.66 274.28 156.08 271.26 156.58 269.16C156.84 268.07 156.4 266.68 156.68 265.54C158.11 259.86 159.31 254.22 160.87 248.39C163.02 247.1 163.75 241.59 163.7 239.18C163.47 239.07 163.24 238.96 163.01 238.85C162.25 238.46 161.49 238.07 160.73 237.67C160.12 236.07 159.51 234.47 158.89 232.88C158.89 229.07 158.88 225.27 158.88 221.46C158.76 220.78 158.64 220.09 158.51 219.41C159.6 218.12 161.72 210.38 161.64 208.45C159.85 209.57 157.33 209.96 155.72 211.23C152.15 214.07 152.59 217.01 151.13 220.76C150.91 221.33 150.33 221.53 150.24 222.16C150.04 223.62 150.65 225.11 150.17 226.7C149.16 230.07 147.06 234.16 147.48 237.67C145.6 239.77 145.27 243.62 144.24 246.33C143.27 248.9 141.48 251.2 140.15 253.48C139.24 255.02 138.02 257.14 136.07 257.08ZM340.85 219.18C340.33 221.37 341.41 223.17 341.56 225.34C341.79 228.41 340.6 231.38 340.9 234.25C339.6 235.84 338.29 237.44 336.99 239.04C337.67 241 338.46 244.46 337.9 246.35C340.03 248.9 339.43 251.94 340.32 254.94C342.02 260.68 345.18 270.38 344.96 276.26C345.12 277.2 345.28 278.14 345.43 279.08C347.35 279.79 353.13 280.35 354.41 278.61C355.22 277.97 356.04 277.32 356.85 276.68C357.38 276.61 357.91 276.55 358.45 276.48C359.21 275.88 359.97 275.27 360.73 274.66C360.84 274.05 360.95 273.44 361.07 272.83C361.56 272.59 362.06 272.34 362.56 272.1C364.55 270.98 365.31 258.98 364.22 257C363.83 256.29 362.77 255.93 362.1 255.75C357.2 254.66 355.26 240.64 352.55 237.67C352.63 233.83 350.8 230.25 349.83 226.7C349.41 225.15 349.94 223.61 349.76 222.16C349.24 217.99 347.02 214.09 343.84 210.73C342.51 210.34 338.81 208.24 338.13 209.13C339.03 212.48 339.94 215.83 340.85 219.18ZM208.22 237.01C206.89 238.76 207.7 243.1 207.69 245.43C207.65 253.04 207.64 260.65 207.67 268.26C207.68 270.26 206.77 276.37 208.68 277.11C211.57 277.06 214.46 277 217.35 276.94C217.44 276.85 217.53 276.76 217.62 276.67C219.07 275 218.25 270.2 218.26 267.81C218.3 260.5 218.25 253.2 218.25 245.89C218.25 243.49 219.06 238.97 217.81 237.06C217.43 237.06 217.05 237.06 216.67 237.06C214.32 235.2 211.62 237.32 208.9 236.53C208.68 236.69 208.45 236.85 208.22 237.01ZM282.19 237.08C280.95 239.04 281.74 243.47 281.74 245.89C281.74 253.04 281.74 260.2 281.74 267.35C281.74 269.81 280.87 274.95 282.38 276.67C282.47 276.76 282.56 276.85 282.65 276.94C285.54 277 288.43 277.07 291.32 277.13C293.3 276.37 292.3 270.32 292.31 268.26C292.33 260.65 292.32 253.04 292.33 245.43C292.33 243.15 293.14 238.69 291.78 237.02C291.4 237.05 291.02 237.09 290.64 237.12C289.56 236.12 289.26 236.07 287.9 236.9C286.23 236.78 284.55 236.65 282.88 236.53C282.65 236.71 282.42 236.9 282.19 237.08ZM154.26 315.04C153.83 319.62 153.4 324.19 152.97 328.77C153.88 331.29 153.34 333.96 152.22 336.3C152.21 336.82 152.19 337.35 152.18 337.87C150.54 339.9 151.28 347.57 151.89 350.23C151.83 351.12 151.78 352.01 151.72 352.91C150.3 353.66 150.77 355.73 150.77 357.31C150.75 361.41 149.67 366.95 150.91 370.78C152.3 375.06 150.28 379.62 150.41 383.79C150.45 384.88 150.92 385.51 151.1 386.53C151.6 389.39 150.88 392.55 151.16 395.43C151.35 397.46 152.35 398.77 152.05 400.68C155.18 404.73 156.89 408.72 161.66 411.61C170.16 416.76 191.07 414.66 201.6 414.66C233.26 414.66 264.92 414.63 296.58 414.63C306.69 414.63 324.81 416.57 333.54 413C336.67 411.72 342.82 410.53 343.28 406.62C344 406.09 344.72 405.56 345.43 405.02C346.27 403.58 347.11 402.13 347.95 400.68C347.55 398.11 348.92 394.21 349.5 391.46C349.74 390.34 349.06 389.42 348.85 388.36C348.23 385.17 348.15 375.53 349.09 372.6C350.33 368.61 349.17 362.94 349.16 358.68C349.15 357.02 349.69 354.94 348.31 353.88C348.26 353.27 348.21 352.66 348.15 352.05C348.05 347.17 347.94 342.29 347.84 337.41C346.9 335.19 345.72 327.08 345.98 324.98C347.22 323.21 346.88 317.36 345.74 315.5C344.08 313.71 345.18 311.5 344.6 309.45C344.2 308.05 343.25 306.41 343.26 304.79C343.28 303.15 344.05 301.55 343.63 299.86C342.96 297.13 340.96 292.62 341.76 289.95C341.96 288.04 342.49 282.81 340.64 281.78C338.42 279.86 339.65 274.7 338.67 272C337.8 269.61 337.69 267.51 337.3 265.15C336.88 262.6 335.61 259.87 334.82 257.29C334.4 255.92 334.89 254.56 334.59 253.28C334.32 252.11 333.25 250.71 332.84 249.53C332.4 248.25 332.98 247.13 332.81 245.92C332.72 245.26 331.95 244.55 331.74 243.84C329.15 245.63 326.56 247.42 323.97 249.21C322.15 249.85 320.32 250.5 318.49 251.14C317.22 252.82 309.3 256.2 307.08 256.16C305.91 257.67 300.37 259.51 298.63 259.12C298.09 259.12 297.55 259.13 297.01 259.13C295.03 261.9 296.14 267.22 296.12 270.55C296.08 280.57 294.95 291.55 296.08 301.37C296.16 301.6 296.23 301.83 296.31 302.05C295.94 302.48 295.57 302.91 295.21 303.33C294.95 303.67 294.7 304 294.45 304.34C294.17 304.49 293.89 304.64 293.61 304.8C293.23 304.74 292.85 304.69 292.47 304.63C289.57 306.75 287 306.38 283.56 306.44C282.88 306.38 282.19 306.32 281.51 306.27C280.26 305.01 279.01 303.76 277.76 302.51C277.69 301.83 277.62 301.14 277.56 300.46C277.48 291.72 277.31 282.95 277.45 274.2C277.49 271.5 278.43 266.08 276.71 264C275.57 263.98 274.43 263.95 273.29 263.93C272.03 265.25 271.34 264.95 269.63 264.38C267.76 265.53 265.61 265.43 263.47 265.04C261.14 264.46 255.34 263.87 253.87 265.98C251.28 265.98 248.7 265.98 246.12 265.98C244.71 263.84 238.41 264.51 236.07 265.04C234.06 265.46 232.13 265.46 230.37 264.38C228.66 264.95 227.97 265.25 226.71 263.93C225.57 263.94 224.43 263.96 223.29 263.97C221.8 265.81 222.63 270.15 222.6 272.57C222.51 280.64 221.49 289.77 222.84 297.72C223.02 298.25 223.21 298.78 223.4 299.32C222.78 300.68 222.16 302.05 221.54 303.42C220.83 304.15 220.12 304.87 219.41 305.59C218.42 305.87 217.43 306.15 216.44 306.43C213.02 306.34 210.28 306.98 207.53 304.56C207.15 304.63 206.77 304.7 206.39 304.77C206.1 304.63 205.8 304.48 205.5 304.34C205.47 303.05 204.83 302.76 203.63 302.05C203.71 301.83 203.8 301.6 203.88 301.37C205.04 291.61 203.69 280.92 203.83 271C203.87 267.61 204.98 262.01 202.97 259.13C202.44 259.13 201.9 259.13 201.37 259.13C199.6 259.51 194.06 257.69 192.92 256.16C190.71 256.22 182.77 252.84 181.51 251.14C179.68 250.5 177.85 249.86 176.03 249.22C174.63 247.39 170.9 244.78 168.72 244.29C166.36 245.03 167.8 247.66 167.15 249.53C166.74 250.71 165.68 252.11 165.41 253.28C164.9 255.51 165.03 258.05 164.31 260.49C161.78 269.04 160.42 278.14 158.55 287.07C158.23 288.61 158.92 290.39 158.49 292.01C158.22 292.99 157.4 293.96 157.24 294.83C156.9 296.61 157.58 298.84 157.12 300.68C156.99 301.19 156.43 301.7 156.37 302.15C156.26 303.02 156.96 303.83 156.73 304.79C156.35 306.35 155.63 307.83 155.29 309.38C154.86 311.37 155.86 313.33 154.26 315.04ZM482 259.79C481.68 259.95 481.37 260.1 481.05 260.26C481.05 263.31 481.05 266.36 481.05 269.41C481.17 270.24 481.29 271.08 481.42 271.92C481.04 272.13 480.66 272.35 480.29 272.56C478.81 274.13 478.75 278.36 479.27 280.37C479.22 280.51 479.17 280.65 479.12 280.79C477.48 282.71 476.87 287.37 477.25 289.95C477.94 291.73 474.38 303.21 473.06 304.79C473.66 307.09 469.23 321.06 467.12 322.6C467.31 325.46 464.88 330.82 463.01 333.11C463.2 336.54 459.8 339.64 458.67 342.77C456.11 349.85 451.61 355.85 447.73 362.4C445.74 365.76 443.89 370.67 440.64 372.83C440.11 373.52 439.57 374.2 439.04 374.89C438.27 377 436.58 379.81 434.7 381.05C433.94 381.96 433.18 382.88 432.42 383.79C431.81 384.55 431.2 385.31 430.59 386.07C429.16 390.33 422.06 394.71 419.6 398.64C418.37 400.61 415.65 404.23 413.47 404.57C412.4 405.98 411.34 407.4 410.27 408.81C408.1 408.94 407.48 411.18 406.18 412.33C403.6 414.61 400.73 416.87 397.95 418.72C396.77 419.5 396.35 421.21 395.19 421.94C393.02 423.31 390.68 424.77 388.81 426.48C386.37 429.57 377.61 435.43 373.89 437.9C371.71 439.35 368.31 440.31 367.12 442.69C371.84 439.95 376.56 437.21 381.28 434.47C383.32 431.86 386.5 430.76 389.03 428.95C390.05 428.23 390.75 426.91 391.74 426.21C394.84 424.01 398.59 422.22 400.68 419.04C402.05 418.17 403.42 417.31 404.79 416.44C405.2 415.82 412.28 408.65 413.06 408.22C414.6 407.37 416.95 406.23 416.84 404.34C418.78 403.65 418.81 402.9 419.86 401.26C421.79 401.49 426.82 393.59 429.22 392.01C429.98 391.1 430.75 390.18 431.51 389.27C432.08 387.91 433.18 387.49 433.98 386.29C437.58 380.84 442.73 375.85 445.43 369.73C445.81 369.09 446.2 368.45 446.58 367.81C448.02 366.06 449.47 364.31 450.91 362.56C453.23 358.07 455.54 353.58 457.85 349.09C459.17 347.88 459.44 348.01 459.24 346.35C461.11 343.15 462.97 339.95 464.84 336.76C466.21 333.56 467.58 330.37 468.95 327.17C468.69 325.8 468.72 325.72 469.86 324.89C470.32 323.73 470.78 322.57 471.23 321.41C473.15 319.65 473.53 316.16 473.97 313.7C473.72 312.45 474.08 312.17 474.89 311.19C474.46 309.12 476.71 301.33 478.08 299.96C479.38 297.63 480.2 294.11 479.86 291.32C479.19 289.48 480.87 280.05 481.62 277.77C482.4 275.39 481.34 272.49 481.62 270.09C481.75 269 482.41 268.32 482.63 267.34C483.36 264.17 483.31 255.96 482.42 252.97C482.28 255.24 482.14 257.52 482 259.79ZM208.22 298.17C208.68 298.85 209.13 299.54 209.59 300.23C210.73 300.76 211.87 301.29 213.01 301.83C213.93 301.52 214.84 301.22 215.75 300.91C216.13 300.6 216.51 300.28 216.89 299.97C218.73 298.53 218.99 285.22 217.81 283.1C214.54 283.02 211.26 282.95 207.99 282.87C208.07 287.97 208.14 293.07 208.22 298.17ZM282.18 283.09C282.19 288.1 282.19 293.11 282.19 298.12C282.8 298.97 283.41 299.83 284.02 300.68C285.01 301.07 286 301.45 286.99 301.83C288.13 301.29 289.27 300.76 290.41 300.23C290.72 299.81 291.02 299.39 291.32 298.98C293.01 297.74 292.55 285.33 292.05 282.88C288.76 282.95 285.47 283.02 282.18 283.09ZM133.07 308.71C131.22 309.67 131.86 313.31 131.88 315.3C131.94 319.77 130.61 334.07 133.2 336.93C133.43 337.33 133.66 337.73 133.88 338.13C133.7 339.04 133.52 339.95 133.33 340.87C134.4 342.04 134.44 342.81 134.01 344.29C133.7 346.13 133.08 351.09 134.7 352.37C134.97 352.49 135.24 352.62 135.51 352.74C135.19 354.19 135.21 354.09 136.14 355.02C135.98 355.4 135.82 355.78 135.66 356.16C136.25 359.17 136.85 362.17 137.44 365.17C138.82 366.59 141.2 377.31 141.55 379.68C142.97 381.08 144.32 383.88 144.06 385.84C143.97 387.13 144.32 387.39 145.43 388.12C146.79 385.75 146.09 381.91 146.09 379.22C146.08 372.01 146.23 364.74 145.85 357.53C145.94 356.85 146.03 356.16 146.12 355.48C145 352.9 145.47 349.57 146.65 347.08C147.84 346.12 147.31 343.75 147.33 342.24C147.39 338.01 148.33 333.95 147.68 329.68C147.37 323.96 148.53 319.25 149.55 313.83C149.71 313.02 149.19 312.04 149.21 311.19C149.26 308.76 150.4 299.98 151.37 298.17C149.7 298.48 148.02 298.78 146.35 299.09C144.53 300.55 142.64 300.52 140.65 301.29C137.24 302.61 135 305.92 133.07 308.71ZM352.35 330.14C351.78 332.77 352.08 346.18 353.35 348.01C354.54 350.52 355.01 353.8 353.88 356.39C353.98 357.08 354.07 357.76 354.16 358.45C353.24 365.33 354.01 372.73 353.91 379.68C353.88 382.08 353.23 386.12 354.57 388.12C354.93 387.51 355.3 386.91 355.67 386.3C355.81 383.23 358.1 381.04 358.75 378.22C358.94 377.42 358.47 376.45 358.87 375.57C359.29 374.65 360.4 373.27 360.58 372.29C360.99 370.01 360.7 366.99 362.56 365.18C363.65 364.22 364.48 357.3 364.13 355.71C364.05 355.48 363.98 355.25 363.9 355.02C364.75 354.08 364.74 354.1 364.43 352.74C364.65 352.47 364.88 352.19 365.1 351.92C365.25 351.89 365.41 351.86 365.57 351.83C365.71 349.16 365.85 346.5 365.99 343.84C365.58 342.36 365.62 341.59 366.67 340.41C366.63 338.89 366.19 338.33 367.12 337.21C367.05 336.68 366.97 336.14 366.9 335.6C368.51 334.16 368.08 331.54 368.07 329.45C368.02 324.58 368.01 319.71 368.07 314.84C368.09 312.85 368.68 310.03 367.12 308.69C365.22 306.97 364.18 304.1 361.63 302.7C359 301.26 356 300.99 353.65 299.09C351.98 298.78 350.3 298.48 348.63 298.17C349.11 301.78 349.77 306.74 350.72 310.27C351.07 311.59 350.11 312.69 350.34 313.84C351.47 319.48 352.65 324.15 352.35 330.14ZM177.63 331.44C225.88 331.44 274.12 331.44 322.37 331.44C324.37 331.06 325.83 333.01 327.41 333.97C335.08 338.64 333.64 348.66 335.21 356.39C334.44 359.62 336.1 361.46 335.75 364.61C335.57 366.21 334.95 367.48 335.2 369.18C335.44 370.8 336.36 371.32 335.82 373.06C335.14 375.13 335.16 380.18 336.45 382.13C337.78 383.73 337.6 387.7 337.34 389.73C336.63 391.55 335.91 393.38 335.2 395.21C334.58 395.66 333.96 396.12 333.33 396.58C332.5 397.76 331.66 398.95 330.82 400.14C328.59 400.58 326.69 402.42 324.41 402.62C322.8 402.77 320.67 402.26 318.95 402.24C313.32 402.19 307.69 402.25 302.05 402.22C284.86 402.12 267.66 402.21 250.46 402.21C232.5 402.21 214.54 402.22 196.58 402.22C191.25 402.22 185.91 402.2 180.59 402.21C179.02 402.21 177.07 402.75 175.59 402.62C173.31 402.43 171.4 400.58 169.18 400.14C167.71 398.49 166.24 396.85 164.78 395.21C164.07 393.38 163.36 391.55 162.65 389.73C162.38 387.57 161.93 383.76 163.47 382.05C164.96 380.51 164.78 374.94 164.17 373.06C163.64 371.23 164.7 370.15 164.84 368.26C165.07 365.17 163.46 361.33 165.54 358.68C165.29 357.91 165.05 357.15 164.8 356.39C165.47 353.06 165.95 349.23 166.52 345.74C166.82 343.9 166.2 342.3 166.9 340.38C167.39 339.08 168.92 338.13 169.6 336.97C170.92 334.7 174.94 330.93 177.63 331.44ZM175.15 338.81C174.07 340.64 172.99 342.47 171.92 344.29C172.66 346.83 171.8 348.62 171.25 350.93C170.81 352.75 172.01 354.66 171.7 356.39C171.39 358.14 170.12 359.89 171.16 361.42C169.99 363.01 170.33 365.81 170.32 367.84C171.94 369.32 176.4 368.52 178.77 368.52C186.53 368.52 194.29 368.52 202.05 368.51C232.95 368.5 263.85 368.5 294.75 368.51C303.27 368.52 311.8 368.48 320.32 368.53C322.67 368.55 327.99 369.37 329.59 367.88C329.01 359.64 328.43 351.39 327.85 343.15C326.93 341.7 326 340.26 325.07 338.81C324.4 336.52 320.17 335.64 318.04 335.51C311.09 335.06 303.99 335.45 297.03 335.45C267.05 335.45 237.06 335.45 207.08 335.45C198.91 335.45 190.57 334.95 182.42 335.47C180.34 335.6 175.34 336.27 175.15 338.81ZM185.16 354.71C196.69 354.24 208.32 354.66 219.86 354.66C242.24 354.66 264.61 354.66 286.99 354.66C294.9 354.66 302.82 354.66 310.73 354.66C313.8 354.66 318.23 354.92 317.4 359.13C314.04 362.36 313.14 360.49 309.36 360.49C308.48 360.49 307.62 361.14 306.62 361.17C301.01 361.39 295.34 361.14 289.73 361.14C263.85 361.14 237.98 361.18 212.1 361.18C205.1 361.18 198.1 361.14 191.1 361.12C187.12 361.11 183.27 361.73 182.18 357.31C183.17 356.44 184.17 355.58 185.16 354.71ZM175.73 374.1C173.62 374.07 171.51 374.03 169.41 374C167.29 375.42 168.53 382.44 168.55 384.93C168.91 387.21 169.27 389.5 169.63 391.78C170.62 392.92 171.61 394.06 172.6 395.21C173.95 395.79 175.3 396.37 176.65 396.96C177.81 398.95 182.44 398.01 184.7 398.01C192.77 398 200.84 398.05 208.9 398.03C237.67 397.95 266.44 398.03 295.21 398.03C302.21 398.03 309.21 398.03 316.21 398.03C318.39 398.03 322.23 398.77 323.64 397.06C324.9 396.44 326.15 395.82 327.4 395.21C328.61 393.68 329.83 392.16 331.05 390.64C331.16 388.89 331.27 387.14 331.38 385.39C331.27 381.76 331.16 378.13 331.05 374.51C330.86 374.33 330.68 374.15 330.49 373.97C328.43 372.64 323.76 373.49 321.23 373.5C313.47 373.53 305.71 373.5 297.95 373.51C268.87 373.53 239.8 373.49 210.73 373.49C202.36 373.49 193.99 373.48 185.62 373.5C182.95 373.5 177.75 372.62 175.73 374.1ZM189.09 470.55C187.36 469.73 185.52 468.79 183.56 469.18C184.65 470.27 187.78 471.71 189.09 470.55Z" fill="#fdeaab" fill-rule="evenodd" stroke="#fdeaab" stroke-width="0.25" stroke-linejoin="round"/>
<path d="M249.31 6.83C244.75 6.91 240.18 7 235.62 7.09C237.61 5.86 239.62 7.54 241.77 6.84C243.87 6.14 247.63 4.48 249.31 6.83ZM265.3 7.07C260.43 6.99 255.57 6.91 250.71 6.83C252.38 4.44 256.57 6.14 258.69 6.84C261 7.6 263.07 5.83 265.3 7.07ZM235.11 7.03C234.91 7.5 234.72 7.98 234.52 8.45C237.02 8.53 239.51 8.61 242.01 8.69C240.14 10.86 234.88 9.27 232.19 9.33C227.42 9.44 223.28 9.97 218.51 10.06C217.11 10.09 216.01 10.93 214.83 11.39C213.78 11.79 212.86 11.21 211.87 11.22C210.97 11.23 210.56 12.01 209.8 12.28C208.88 12.6 204.14 12.3 203.01 12.1C203.35 9.93 208.59 10.2 210.19 9.93C211.36 9.73 212.35 9.15 213.48 8.75C215.16 8.18 220.13 8.46 222.06 8.06C222.5 7.97 222.6 7.35 223.07 7.26C224.31 7.01 225.78 8.12 227.15 7.75C229.78 7.04 232.17 6.17 235.11 7.03ZM248.4 8.7C252.97 7.93 264.89 8.31 269.28 9.46C271.08 9.93 272.76 9.2 274.34 10.43C271.89 10.57 269.6 10.19 267.34 9.6C265.98 9.25 264.93 10.3 263.7 10.18C262.85 10.1 262.62 9.38 261.86 9.15C260.8 8.82 258.04 9.22 256.85 9.31C254.48 9.49 250.04 10.59 248.4 8.7ZM197.03 11.8C198.33 12.05 199.62 12.3 200.91 12.56C200.08 13.1 199.24 13.65 198.4 14.19C196.85 14.19 195.3 14.19 193.75 14.19C194.85 13.39 195.94 12.59 197.03 11.8ZM266.17 13.53C255.84 13.53 245.5 13.53 235.16 13.53C236.57 12.14 239.79 12.73 241.78 12.71C247.56 12.68 253.35 12.65 259.13 12.69C261.17 12.71 264.76 12.08 266.17 13.53ZM268.58 13.74C270.61 13.53 272.63 13.32 274.66 13.11C275.71 14.28 276.03 14.21 277.7 13.87C276.06 15.07 270.58 14.78 268.58 13.74ZM189.27 13.94C190.49 13.94 191.7 13.94 192.92 13.94C192.26 15.5 187.79 16.8 186.53 15.53C187.44 15 188.36 14.47 189.27 13.94ZM287.71 15.41C288.23 15.25 288.75 15.09 289.27 14.93C290.03 15.78 289.05 15.27 289.81 15.86C290.57 16.44 291.72 15.58 292.47 15.5C294.37 15.28 295.46 16.9 297.49 16.55C297.72 16.73 297.95 16.91 298.17 17.09C296.48 17.34 288.45 16.48 287.71 15.41ZM184.7 17.3C182.88 17.28 180.92 18.88 179.87 17.58C181.25 16.25 184.49 14.58 184.7 17.3ZM264.26 18.92C256.1 18.96 247.94 18.99 239.77 19.03C241.26 17.22 255.44 18.01 258.68 17.99C260.43 17.98 263.13 17.66 264.26 18.92ZM226.94 20.33C226.71 20.6 226.48 20.87 226.26 21.14C224.62 20.43 220.96 21 219.86 22.05C219.39 21.86 218.91 21.66 218.43 21.46C219.78 19.74 225.03 19.68 226.94 20.33ZM95.66 63.93C95.71 64.69 96.22 63.81 96 64.67C95.81 65.41 94.29 65.71 93.89 66.22C92.13 68.48 88.56 72.5 85.62 73.97C85.15 70.55 91.61 69.37 91.64 66.44C92.98 65.6 94.32 64.76 95.66 63.93ZM73.06 87.75C72.75 87.65 72.45 87.54 72.15 87.44C72.12 87.21 72.1 86.99 72.07 86.76C72.36 85.24 80.63 77 82.19 76.48C81.97 79.26 75.5 85.85 73.06 87.75ZM257.95 85.55C252.55 85.49 247.14 85.44 241.73 85.38C244 84.09 256.32 83.74 257.95 85.55ZM256.62 91.14C251.73 91.32 246.84 91.5 241.94 91.68C244.01 89.29 253.99 89.32 256.62 91.14ZM256.54 96.96C255.73 96.6 254.92 96.25 254.11 95.89C251.59 96.91 247.82 96.88 245.3 95.89C247.31 95.01 255.61 94.72 256.54 96.96ZM220.14 102.82C196.07 102.91 171.99 102.99 147.92 103.08C149.2 102.05 151.5 102.74 153.2 102.74C157.61 102.74 162.02 102.74 166.44 102.74C184.23 102.74 202.39 101.68 220.14 102.82ZM281.23 102.82C304.99 102.87 328.75 102.93 352.51 102.98C328.75 102.93 304.99 102.87 281.23 102.82ZM147.92 103.08C145.19 105.25 142.46 107.42 139.73 109.59C139.7 109.21 139.67 108.83 139.65 108.45C140.51 107.42 141.37 106.39 142.24 105.36C143.52 105.53 144.08 104.71 144.98 103.62C145.96 103.44 146.94 103.26 147.92 103.08ZM191.82 108.18C177.22 108.34 162.62 108.51 148.02 108.68C149.43 106.64 155.84 107.62 158.22 107.62C166.29 107.62 174.35 107.58 182.42 107.62C185.07 107.63 189.62 106.83 191.82 108.18ZM196.82 177.63C200.93 178.94 207.95 179.47 212.1 178.08C212.1 154.79 212.1 131.51 212.1 108.22C207.15 108.21 202.19 108.2 197.24 108.19C202.35 108.13 207.47 108.06 212.59 107.99C214.17 111.09 213.12 119.71 213.12 123.52C213.12 136.3 213.11 149.09 213.12 161.87C213.13 164.71 213.98 176.86 212.54 178.5C211.28 179.94 199.83 179.5 197.49 179.17C197.27 178.65 197.04 178.14 196.82 177.63ZM282.13 108.22C260.71 108.22 239.29 108.22 217.87 108.22C219.59 106.81 229.38 107.64 232.19 107.64C244.37 107.63 256.55 107.68 268.72 107.62C271.41 107.61 280.48 106.86 282.13 108.22ZM303.27 110.51C303.09 109.82 302.92 109.13 302.74 108.45C297.79 108.37 292.85 108.3 287.9 108.22C287.9 131.51 287.9 154.79 287.9 178.08C290.46 178.94 301.87 179.37 303.2 176.94C303.22 176.25 303.25 175.55 303.27 174.85C303.2 176.16 303.14 177.46 303.07 178.77C300.3 179.8 290.23 179.96 287.61 178.77C285.68 174.88 286.86 165.52 286.86 160.96C286.86 148.63 286.86 136.3 286.86 123.97C286.86 119.39 285.5 112.15 287.33 107.99C292.61 107.99 297.9 107.99 303.18 107.99C303.21 108.83 303.24 109.67 303.27 110.51ZM352.45 108.68C337.69 108.51 322.94 108.34 308.18 108.18C310.48 106.73 315.27 107.59 318.04 107.61C326.1 107.68 334.17 107.63 342.24 107.63C344.53 107.63 351.18 106.7 352.45 108.68ZM191.82 108.18C193.33 110.86 192.26 121.25 192.26 124.89C192.26 137.52 192.26 150.15 192.26 162.79C192.26 166.75 193.33 175.49 191.7 178.77C188.2 180.38 182.16 179.26 178.31 179.27C171.77 179.28 165.22 179.25 158.68 179.27C156.14 179.27 153.04 179.8 150.56 179.27C149.42 179.02 148.5 178.48 147.26 178.33C147.01 177.91 146.75 177.49 146.5 177.07C146.91 177.41 147.31 177.75 147.72 178.08C149.48 177.53 154.35 178.54 156.85 178.54C164.61 178.54 172.37 178.54 180.14 178.54C183.06 178.54 189.02 179.65 191.32 177.85C191.49 154.63 191.66 131.4 191.82 108.18ZM197.24 108.19C197.07 125.58 196.9 142.96 196.73 160.34C195.63 156.72 196.48 151.57 196.48 147.72C196.48 138.89 196.48 130.06 196.48 121.23C196.48 117.96 195.12 110.67 197.24 108.19ZM308.18 108.18C308.35 131.4 308.51 154.63 308.68 177.85C310.98 179.65 316.94 178.54 319.86 178.54C329.98 178.54 340.1 178.54 350.22 178.54C348.89 180.27 342.66 179.29 340.41 179.28C332.8 179.23 325.19 179.26 317.58 179.35C314.68 179.38 310.45 180.15 307.99 178.46C308.05 155.03 308.12 131.61 308.18 108.18ZM281.95 109.58C282.04 132.4 282.13 155.23 282.22 178.05C282.13 155.23 282.04 132.4 281.95 109.58ZM363.5 123.29C363.98 123.69 365.53 131.52 365.42 132.65C365.35 133.4 364.74 134.17 364.85 134.92C364.97 135.68 365.74 135.94 365.89 136.76C366.32 139.12 365.24 143.26 365.3 145.89C365.32 147.2 366.36 148.65 365.84 149.99C365.6 150.58 364.96 150.72 364.85 151.38C364.75 152.06 365.29 152.57 365.39 153.2C365.67 154.83 364.76 158.21 364.14 159.36C363.33 157.14 364.53 154.7 364.5 152.28C364.44 145.47 365.13 138.53 364.51 131.74C364.27 129.01 362.76 126.1 363.5 123.29ZM141.21 129.69C141.2 138.69 141.19 147.68 141.18 156.68C139.32 153.81 140.56 140.46 140.56 136.3C140.55 134.29 140.05 131.28 141.21 129.69ZM359.07 134.34C359.45 134.69 359.82 135.04 360.19 135.39C360.26 138.26 361.02 151.15 359.08 152.09C358.09 148.36 359.98 145.77 359.82 142.24C359.69 139.41 358.02 137.97 359.07 134.34ZM135.8 134.63C136.03 142.57 136.26 150.51 136.5 158.45C134.42 156.61 136.37 153.32 135.92 151C135.83 150.56 135.19 150.49 135.12 149.99C134.96 148.84 135.62 146.77 135.62 145.43C135.62 143.33 134.9 138.32 135.12 136.77C135.26 135.81 135.92 135.81 135.8 134.63ZM303.27 135.54C303.27 141.07 303.27 146.6 303.27 152.13C303.27 146.6 303.27 141.07 303.27 135.54ZM466.03 150.23C466.47 151.29 466.91 152.36 467.35 153.42C468.02 154.26 468.69 155.1 469.36 155.94C469.38 156.76 469.39 157.59 469.41 158.42C467.88 157.38 465.8 152.14 466.03 150.23ZM43.82 154.34C43.75 155.18 43.68 156.02 43.61 156.86C43.99 156.52 44.37 156.18 44.75 155.84C44.53 157.75 43.94 160.11 42.21 161.42C42.14 162.96 42.08 163.58 41.1 165.07C40.79 165.83 40.49 166.59 40.18 167.35C39.88 168.87 39.58 170.4 39.28 171.92C37.67 173.28 37.25 175.72 37.44 177.85C34.64 179.59 36.39 183.93 33.79 186.07C34.55 188.08 32.96 193.91 31.28 195.43C29.94 192.76 31.61 191.04 31.53 188.36C32.75 186.96 36.1 175.32 35.48 173.74C38.04 172.33 40.66 156.61 43.82 154.34ZM455.71 155.74C456.85 158.03 457.99 160.32 459.13 162.61C459.23 161.98 459.33 161.36 459.44 160.73C460.48 161.61 460.04 162.32 460.27 163.7C460.58 164.46 460.88 165.22 461.19 165.98C462.6 168.13 462.62 171.35 464.42 172.83C464.02 176.69 467.79 181.83 466.89 184.93C467.42 185.77 467.95 186.61 468.47 187.44C468.38 189.72 469.54 191 468.72 193.15C464.8 190.36 466.23 179.69 462.51 176.03C462.38 172.25 459.43 169.76 459.82 165.98C459.16 165.22 458.51 164.46 457.85 163.7C457.67 161.59 457.42 159.45 455.62 157.76C455.65 157.09 455.68 156.41 455.71 155.74ZM141.55 159.82C141.84 160.05 142.12 160.27 142.4 160.5C142.27 161.72 142.14 162.94 142.01 164.16C142.48 165.22 142.96 166.29 143.43 167.35C143.26 168.18 143.09 169 142.92 169.83C141.77 167.84 140.71 162.14 141.55 159.82ZM196.73 161.62C196.73 165.9 196.73 170.17 196.73 174.45C196.73 170.17 196.73 165.9 196.73 161.62ZM217.85 178.08C239.31 178.07 260.77 178.06 282.22 178.05C281.98 178.46 281.75 178.87 281.51 179.28C260.5 179.28 239.5 179.29 218.49 179.29C218.28 178.89 218.07 178.48 217.85 178.08ZM166.74 191.85C167.02 189.31 167.3 186.78 167.58 184.25C161.78 184.21 155.97 184.17 150.17 184.14C156.09 184.02 162.01 183.91 167.94 183.79C168.87 185.72 168.07 190.26 166.74 191.85ZM325.53 184.02C275.18 184.02 224.83 184.02 174.49 184.02C224.83 184.02 275.18 184.02 325.53 184.02ZM350.17 184.02C344.25 184.1 338.34 184.17 332.42 184.25C332.7 186.92 332.98 189.59 333.26 192.27C331.93 191.12 331.32 185.92 331.74 184.14C333.71 183.08 348.25 182.95 350.17 184.02ZM472.6 188.26C474.07 189.61 474.54 195.2 474.39 197.26C474.1 197.03 473.8 196.8 473.5 196.58C473.19 195.21 472.88 193.84 472.57 192.47C472.73 191.7 472.9 190.94 473.06 190.18C472.91 189.54 472.75 188.9 472.6 188.26ZM469.63 195.89C470.68 197.47 471.25 201.24 470.55 203.2C469.31 201.45 468 197.59 469.63 195.89ZM30.82 196.8C31.07 197.95 31.32 199.09 31.56 200.23C30.22 201.72 30.27 203.1 30.21 205.25C27.39 204.29 29.2 197.81 30.82 196.8ZM482.7 200.91C483.01 201.14 483.31 201.37 483.62 201.6C483.56 202.93 483.18 201.9 484.16 202.97C483.84 204.42 483.86 207.82 485.07 208.9C484.85 209.3 484.62 209.7 484.4 210.1C484.19 210 483.98 209.91 483.77 209.82C483.42 206.85 483.06 203.88 482.7 200.91ZM133.99 210.99C133.47 214.25 132.94 217.51 132.42 220.78C132.34 221.61 132.26 222.45 132.18 223.29C131.51 219.8 131.92 213.71 133.99 210.99ZM366.67 213.27C368.57 215.46 368.25 220.9 367.83 223.74C367.55 223.36 367.27 222.98 366.99 222.6C367.85 220.62 366.7 215.98 366.67 213.27ZM477.17 213.81C478.98 216.04 478.39 221.48 477.87 224.2C477.25 223.18 476.52 215.14 477.17 213.81ZM127.16 219.18C126.93 230.14 126.7 241.1 126.46 252.05C124.41 250.28 126.03 246.56 126.03 244.06C126.03 237.63 125.16 231.4 126.47 225.33C126.9 223.35 125.74 220.84 127.16 219.18ZM340.85 219.18C343.07 221.33 342.43 231.14 340.9 234.25C340.6 231.38 341.79 228.41 341.56 225.34C341.41 223.17 340.33 221.37 340.85 219.18ZM372.64 219.63C374.4 221.17 372.91 224.05 373.63 226.17C375.74 232.47 372.98 239.24 373.97 245.89C374.43 248.96 374.99 251.58 372.65 253.88C372.7 252.71 373.28 252.02 373.46 250.91C374.45 244.83 374.04 235.22 373.57 229C373.34 225.88 372.32 222.89 372.64 219.63ZM158.88 221.46C158.88 225.27 158.89 229.07 158.89 232.88C158.45 232.19 158 231.51 157.56 230.82C157.55 228.69 157.55 226.56 157.55 224.43C157.99 223.44 158.44 222.45 158.88 221.46ZM23.29 222.93C22.91 230.21 22.54 237.48 22.17 244.75C21.61 241.23 21.37 225.34 23.29 222.93ZM18.06 227.8C17.82 231.04 17.59 234.28 17.35 237.51C17.21 234.37 17.07 231.23 16.94 228.08C17.31 227.99 17.68 227.9 18.06 227.8ZM13.04 228.77C13.04 237.29 13.05 245.81 13.05 254.34C11.53 251.44 13.75 247.62 12.77 244.53C12.41 243.4 11.82 243.12 11.77 241.78C11.98 240.79 12.49 240.38 12.77 239.48C13.86 236.02 11.79 232.24 13.04 228.77ZM18.8 229.62C18.74 232.31 18.67 234.99 18.61 237.67C18.36 237.74 18.11 237.81 17.86 237.88C17.85 235.99 17.83 234.09 17.81 232.19C18.11 231.74 18.42 231.28 18.72 230.82C18.75 230.42 18.77 230.02 18.8 229.62ZM486.94 229.68C487.03 231.28 487.12 232.88 487.21 234.47C488.56 235.74 488.44 237.06 487.95 238.8C487.63 238.6 487.31 238.4 486.99 238.2C486.97 235.36 486.96 232.52 486.94 229.68ZM221.92 231.96C216.06 232.15 210.2 232.33 204.34 232.52C203.21 236.8 203.71 242.37 203.85 246.8C203.91 248.89 204.59 251.62 202.92 252.97C202.87 246.19 202.81 239.42 202.75 232.65C203.65 232.1 204.75 231 205.72 230.67C208.95 229.58 217.09 230.58 220.78 230.64C221.16 231.08 221.54 231.52 221.92 231.96ZM297.1 253.04C295.43 251.81 296 249.32 296.07 247.26C296.21 242.72 297.03 236.78 295.66 232.45C289.73 232.45 283.79 232.44 277.85 232.43C276.44 238.09 277.43 245.07 277.43 250.91C277.43 252.98 278.12 256.56 276.71 257.99C275.59 255.69 276.12 252.55 276.12 250C276.12 246.35 275.01 237.56 276.17 234.49C276.59 233.38 277.09 232.68 277.4 231.47C278.43 231.48 278.56 230.88 279.68 230.63C281.91 230.13 292.24 229.98 294.28 230.67C295.25 231 296.35 232.1 297.25 232.65C297.2 239.45 297.15 246.24 297.1 253.04ZM131.63 231.97C131.56 237.91 131.5 243.86 131.43 249.8C130.07 248.31 130.23 233.17 131.63 231.97ZM368.37 233.36C369.9 234.6 369.93 247.94 368.37 249.25C368.37 243.96 368.37 238.66 368.37 233.36ZM222.84 233.79C224.39 234.89 223.88 237.92 223.88 239.95C223.88 245.96 224.25 252.13 223.29 257.98C222.06 256.62 222.56 253.31 222.56 251.37C222.56 245.73 221.73 239.31 222.84 233.79ZM208.22 237.01C208.37 250.37 208.52 263.74 208.68 277.11C206.77 276.37 207.68 270.26 207.67 268.26C207.64 260.65 207.65 253.04 207.69 245.43C207.7 243.1 206.89 238.76 208.22 237.01ZM217.81 237.06C219.06 238.97 218.25 243.49 218.25 245.89C218.25 253.2 218.3 260.5 218.26 267.81C218.25 270.2 219.07 275 217.62 276.67C217.68 263.47 217.74 250.26 217.81 237.06ZM282.19 237.08C282.25 250.28 282.32 263.47 282.38 276.67C280.87 274.95 281.74 269.81 281.74 267.35C281.74 260.2 281.74 253.04 281.74 245.89C281.74 243.47 280.95 239.04 282.19 237.08ZM291.78 237.02C293.14 238.69 292.33 243.15 292.33 245.43C292.32 253.04 292.33 260.65 292.31 268.26C292.3 270.32 293.3 276.37 291.32 277.13C291.48 263.76 291.63 250.39 291.78 237.02ZM163.01 238.85C163.24 238.96 163.47 239.07 163.7 239.18C163.75 241.59 163.02 247.1 160.87 248.39C161.13 247.86 161.39 247.33 161.64 246.8C161.58 244.99 162.53 243.74 161.96 242.24C163.02 241.1 162.28 240.44 163.01 238.85ZM22.17 252.51C22.51 259.65 22.86 266.79 23.21 273.93C20.95 269.56 21.36 257.44 22.17 252.51ZM362.1 255.75C362.77 255.93 363.83 256.29 364.22 257C365.31 258.98 364.55 270.98 362.56 272.1C362.69 270.65 363.54 269.23 363.66 267.72C363.91 264.29 362.66 260.55 363.93 257.31C363.32 256.79 362.71 256.27 362.1 255.75ZM130.59 257.2C130.66 260.96 130.73 264.73 130.8 268.49C130.58 268.26 130.36 268.04 130.14 267.81C130.29 264.27 130.44 260.74 130.59 257.2ZM136.07 257.08C137.52 260.29 136.04 264.32 136.34 267.72C136.47 269.24 137.31 270.63 137.44 272.07C135.28 270.59 134.8 258.92 136.07 257.08ZM369.41 257.2C369.34 260.81 369.27 264.42 369.2 268.04C369.27 264.42 369.34 260.81 369.41 257.2ZM477.87 257.99C478.3 260.67 478.9 265.17 476.96 267.18C477.27 264.12 477.57 261.05 477.87 257.99ZM224.18 258.52C224.57 258.3 224.95 258.08 225.34 257.85C226.75 259.37 228.57 257.94 230.37 259.36C231.89 259.18 233.41 259.01 234.93 258.83C235.16 259.14 235.39 259.45 235.62 259.75C233.36 259.93 225.58 260.12 224.18 258.52ZM276.11 258.45C274.49 260.4 266.9 259.73 264.38 259.66C264.61 259.39 264.84 259.11 265.07 258.84C266.59 259.01 268.11 259.19 269.63 259.36C271.5 257.89 273.4 259.45 275.11 257.85C275.45 258.05 275.78 258.25 276.11 258.45ZM201.37 259.13C201.9 259.13 202.44 259.13 202.97 259.13C204.98 262.01 203.87 267.61 203.83 271C203.69 280.92 205.04 291.61 203.88 301.37C202.03 298.02 202.7 293.3 202.7 289.27C202.69 282.29 201.48 266.14 202.97 260.27C202.44 259.89 201.9 259.51 201.37 259.13ZM298.63 259.12C298.1 259.5 297.56 259.89 297.03 260.27C298.53 266.4 297.31 282.52 297.31 289.73C297.3 293.61 297.97 298.19 296.08 301.37C294.95 291.55 296.08 280.57 296.12 270.55C296.14 267.22 295.03 261.9 297.01 259.13C297.55 259.13 298.09 259.12 298.63 259.12ZM487.97 258.86C488.41 260.63 488.58 261.96 487.21 263.24C487.39 264 487.56 264.76 487.73 265.53C487.58 266.13 487.43 266.74 487.28 267.35C487.19 267.43 487.09 267.5 486.99 267.58C486.99 264.76 487 261.95 487 259.13C487.32 259.04 487.64 258.95 487.97 258.86ZM240.65 259.86C246.64 258.8 253.21 260.27 258.96 259.65C257.35 260.85 242.74 260.89 240.65 259.86ZM482 259.79C482.36 261.35 481.54 267.77 481.05 269.41C481.05 266.36 481.05 263.31 481.05 260.26C481.37 260.1 481.68 259.95 482 259.79ZM223.29 263.97C224.66 272.09 223.88 280.96 223.88 289.27C223.88 291.66 224.65 296.39 222.84 297.72C221.49 289.77 222.51 280.64 222.6 272.57C222.63 270.15 221.8 265.81 223.29 263.97ZM276.71 264C278.43 266.08 277.49 271.5 277.45 274.2C277.31 282.95 277.48 291.72 277.56 300.46C275.95 299.12 276.12 293.32 276.12 290.64C276.12 288.42 276.88 285.85 276.71 283.79C276.18 277.3 275.58 270.49 276.71 264ZM236.07 265.04C238.41 264.51 244.71 263.84 246.12 265.98C244.12 266.49 241.45 266.77 239.95 265.3C238.66 265.21 237.37 265.12 236.07 265.04ZM263.47 265.04C263.09 265.27 262.71 265.51 262.33 265.74C261.26 265.59 260.2 265.44 259.13 265.3C257.73 266.68 255.75 266.45 253.87 265.98C255.34 263.87 261.14 264.46 263.47 265.04ZM486.26 271.7C486.47 273.14 486.68 274.58 486.89 276.03C485.42 277.39 486.81 279.73 485.62 281.74C485.47 282.19 485.32 282.65 485.17 283.11C485.53 279.3 485.9 275.5 486.26 271.7ZM480.29 272.56C480.16 273.11 480.04 273.65 479.91 274.2C480.54 275.91 480.73 276.99 479.45 278.31C479.65 278.92 479.84 279.53 480.04 280.14C479.78 280.21 479.53 280.29 479.27 280.37C478.75 278.36 478.81 274.13 480.29 272.56ZM472.37 275.8C474.18 277.39 472.32 278.43 473.2 280.59C471.8 281.97 472.31 284.05 471.46 285.98C471.22 284.19 470.98 282.39 470.73 280.59C472.16 278.95 471.4 277.49 472.37 275.8ZM155.05 276.26C154.98 277.09 154.91 277.93 154.84 278.77C153.07 279.86 146.89 280.36 145.6 278.61C148.28 278.74 150.97 278.87 153.65 279C154.58 278.07 154.56 278.11 154.27 276.94C154.53 276.71 154.79 276.48 155.05 276.26ZM344.96 276.26C345.2 276.48 345.43 276.71 345.67 276.94C345.09 280.43 352.28 278.94 354.41 278.61C353.13 280.35 347.35 279.79 345.43 279.08C345.28 278.14 345.12 277.2 344.96 276.26ZM15.6 276.72C16.42 277.42 17.43 285.87 17.11 287.21C16.89 286.99 16.66 286.76 16.44 286.53C16.36 285.54 16.29 284.55 16.21 283.56C15.04 281.53 16.66 279.86 14.93 278.31C15.15 277.78 15.38 277.25 15.6 276.72ZM479.12 280.79C479.27 281.49 479.42 282.18 479.57 282.88C478.17 284.4 477.6 287.49 478.22 289.27C477.89 289.5 477.57 289.73 477.25 289.95C476.87 287.37 477.48 282.71 479.12 280.79ZM340.64 281.78C342.49 282.81 341.96 288.04 341.76 289.95C341.57 289.88 341.39 289.8 341.2 289.73C341.32 288.96 341.44 288.2 341.55 287.44C341.05 286.07 340.55 284.7 340.05 283.33C340.24 282.82 340.44 282.3 340.64 281.78ZM217.81 283.1C214.61 283.18 211.42 283.26 208.22 283.33C208.22 288.28 208.22 293.22 208.22 298.17C208.14 293.07 208.07 287.97 207.99 282.87C211.26 282.95 214.54 283.02 217.81 283.1ZM291.32 298.98C291.48 293.76 291.63 288.55 291.78 283.33C288.58 283.25 285.38 283.17 282.18 283.09C285.47 283.02 288.76 282.95 292.05 282.88C292.55 285.33 293.01 297.74 291.32 298.98ZM357.99 282.66C357.46 283.16 356.93 283.66 356.39 284.16C353.16 284.26 349.92 284.37 346.68 284.47C346.81 284.25 346.94 284.02 347.07 283.79C350.71 283.41 354.35 283.04 357.99 282.66ZM143.38 283.21C145.74 283.16 152.91 282.81 154.15 284.7C153.88 284.94 153.6 285.18 153.33 285.42C153.28 285.1 153.24 284.79 153.2 284.47C150.38 284.25 147.56 284.02 144.75 283.79C144.29 283.6 143.84 283.4 143.38 283.21ZM217.81 283.1C218.99 285.22 218.73 298.53 216.89 299.97C217.2 299.29 217.5 298.62 217.81 297.95C217.81 293 217.81 288.05 217.81 283.1ZM282.18 283.09C282.19 288.1 282.19 293.11 282.19 298.12C282.19 293.11 282.19 288.1 282.18 283.09ZM29.45 284.79C30.19 286.82 32 290.99 30.37 292.69C29.21 290.45 28.73 287.38 29.45 284.79ZM474.39 285.39C473.82 288.3 473.25 291.21 472.68 294.12C472.46 293.72 472.23 293.32 472.01 292.92C473.12 291.89 472.93 291.8 472.56 290.18C472.88 288.81 473.2 287.44 473.52 286.07C473.81 285.84 474.1 285.62 474.39 285.39ZM459.82 327.85C459.74 327.18 459.67 326.51 459.59 325.84C459.21 326.32 458.83 326.79 458.45 327.27C459.26 323.95 462.96 316.49 462.53 313.93C464.09 312.63 464.74 309.46 464.41 307.53C466.21 305.48 466.69 302.61 466.65 299.77C468.67 298.07 469.27 294.26 468.55 291.55C470.11 290.13 469.41 288.37 470.55 286.76C471.86 288.26 471.32 289.9 471.23 292.01C470.47 293.53 469.71 295.05 468.95 296.58C469.09 297.95 469.22 299.32 469.36 300.68C468.62 302.05 467.87 303.42 467.12 304.79C467.16 306.92 467.14 309.36 466.16 311.19C465.87 311.73 465.21 312.14 465.1 312.79C464.85 314.22 464.95 316.2 464.45 317.6C463.91 319.15 463.39 318.84 463.49 320.78C462.33 321.75 462.28 321.97 462.62 323.52C461.69 324.96 460.76 326.41 459.82 327.85ZM484.6 286.74C484.33 288.72 484.06 290.71 483.79 292.69C483.72 293.68 483.64 294.67 483.57 295.66C483.34 295.89 483.1 296.12 482.87 296.35C483.18 293.26 483.48 290.18 483.79 287.09C484.06 286.97 484.33 286.86 484.6 286.74ZM25.63 289.5C25.89 289.73 26.16 289.95 26.43 290.18C26.76 291.55 27.1 292.92 27.43 294.29C27.27 295.05 27.1 295.81 26.94 296.58C27.09 297.24 27.25 297.9 27.4 298.56C25.87 297.39 25.61 291.56 25.63 289.5ZM479.86 291.32C480.2 294.11 479.38 297.63 478.08 299.96C477.89 299.44 477.7 298.92 477.51 298.4C478.64 297.16 478.79 296.38 478.55 294.75C478.85 294.14 479.15 293.53 479.45 292.92C479.59 292.39 479.72 291.86 479.86 291.32ZM45.66 335.98C44.98 335.01 44.29 334.05 43.61 333.08C43.46 333.78 43.31 334.47 43.17 335.16C42.74 334.78 42.3 334.4 41.87 334.02C41.74 330.46 39.63 328.91 39.83 325.34C37.27 322.46 38.15 318.18 35.48 315.75C36.08 313.01 33.81 308.44 32.8 305.69C32.37 304.51 32.19 300.35 31.84 298.95C31.54 297.77 30.7 297.61 30.66 296.12C31.26 296.16 31.57 295.8 32.14 296.22C32.89 296.76 34.1 303.46 33.79 304.34C34.4 305.1 35.02 305.86 35.63 306.62C34.91 308.94 36.6 314.22 38.31 315.75C38.27 317.8 38.67 319.53 40.31 320.78C40.59 322.99 40.65 325.17 42.48 326.71C41.98 328.54 43.05 330.48 44.36 331.74C43.94 333.58 45.44 334.43 45.66 335.98ZM206.39 304.77C206.77 304.7 207.15 304.63 207.53 304.56C210.28 306.98 213.02 306.34 216.44 306.43C216.21 306.76 215.98 307.09 215.75 307.41C213.84 306.68 212.19 306.68 210.27 307.41C209.51 307.1 208.75 306.78 207.99 306.47C207.46 305.9 206.93 305.34 206.39 304.77ZM293.61 304.8C293.07 305.35 292.54 305.89 292.01 306.44C291.25 306.76 290.49 307.08 289.73 307.4C287.8 306.68 286.16 306.67 284.25 307.42C284.02 307.1 283.79 306.77 283.56 306.44C287 306.38 289.57 306.75 292.47 304.63C292.85 304.69 293.23 304.74 293.61 304.8ZM133.07 308.71C133.36 309.8 132.42 315.81 132.42 318.04C132.42 320.88 131.68 324.89 132.43 327.61C133.25 330.56 133.72 333.71 133.2 336.93C130.61 334.07 131.94 319.77 131.88 315.3C131.86 313.31 131.22 309.67 133.07 308.71ZM367.12 308.69C368.68 310.03 368.09 312.85 368.07 314.84C368.01 319.71 368.02 324.58 368.07 329.45C368.08 331.54 368.51 334.16 366.9 335.6C366.3 332.69 366.84 330.24 367.57 327.61C368.46 324.36 367.58 319.6 367.58 316.21C367.58 313.68 366.21 310.86 367.12 308.69ZM127.37 310.96C127.37 317.05 127.37 323.14 127.37 329.22C126 328 126.01 312.16 127.37 310.96ZM372.63 311.42C373.99 312.61 373.99 327.1 372.63 328.31C372.63 322.68 372.63 317.05 372.63 311.42ZM473.97 313.7C473.53 316.16 473.15 319.65 471.23 321.41C471.06 321.05 470.9 320.68 470.73 320.32C471.79 319.45 471.93 319.44 471.7 318.04C472.9 316.82 472.93 316.13 472.66 314.38C473.09 314.16 473.53 313.93 473.97 313.7ZM154.26 315.04C154.49 316.19 154.71 317.34 154.93 318.49C153.33 319.93 154.74 325.96 152.97 328.77C153.4 324.19 153.83 319.62 154.26 315.04ZM345.74 315.5C346.88 317.36 347.22 323.21 345.98 324.98C345.3 322.65 346.78 320.48 345.07 318.95C345.29 317.8 345.51 316.65 345.74 315.5ZM147.68 329.68C148.33 333.95 147.39 338.01 147.33 342.24C147.31 343.75 147.84 346.12 146.65 347.08C146.37 342.72 146.36 338.12 147.47 334C147.93 332.33 146.53 330.9 147.68 329.68ZM352.35 330.14C353.46 331.34 352.1 332.43 352.53 334C353.7 338.34 353.64 343.4 353.35 348.01C352.08 346.18 351.78 332.77 352.35 330.14ZM322.37 331.44C274.12 331.44 225.88 331.44 177.63 331.44C178.64 330.23 182.76 331.05 184.7 331.05C191.7 331.05 198.71 331.05 205.71 331.05C234.17 331.05 262.63 331.05 291.1 331.05C298.86 331.05 306.62 331.05 314.38 331.05C316.43 331.05 321.34 330.2 322.37 331.44ZM325.07 338.81C324.09 338.2 323.12 337.6 322.15 336.99C321.39 336.68 320.62 336.38 319.86 336.07C273.29 336.07 226.71 336.07 180.14 336.07C179.38 336.38 178.61 336.68 177.85 336.99C176.95 337.6 176.05 338.2 175.15 338.81C175.34 336.27 180.34 335.6 182.42 335.47C190.57 334.95 198.91 335.45 207.08 335.45C237.06 335.45 267.05 335.45 297.03 335.45C303.99 335.45 311.09 335.06 318.04 335.51C320.17 335.64 324.4 336.52 325.07 338.81ZM347.84 337.41C347.94 342.29 348.05 347.17 348.15 352.05C346.28 349.17 347.95 344.15 347.95 340.87C347.95 339.37 347.12 338.15 347.84 337.41ZM152.18 337.87C151.83 341.2 153.58 347.76 151.89 350.23C151.28 347.57 150.54 339.9 152.18 337.87ZM365.99 343.84C365.85 346.5 365.71 349.16 365.57 351.83C365.41 351.86 365.25 351.89 365.1 351.92C364.49 350.38 364.54 349.37 365.75 348.17C365.67 346.8 365.58 345.43 365.49 344.06C365.66 343.99 365.82 343.91 365.99 343.84ZM134.01 344.29C134.21 344.37 134.4 344.44 134.59 344.52C134.48 345.89 134.36 347.26 134.25 348.63C135.35 349.7 135.29 350.27 135.3 351.83C135.1 352.01 134.9 352.19 134.7 352.37C133.08 351.09 133.7 346.13 134.01 344.29ZM129.76 351.66C131.14 353.57 131.34 357.15 130.85 359.36C130.64 359.28 130.42 359.21 130.21 359.13C130.34 358.52 130.47 357.91 130.59 357.31C129.4 356.01 129.56 355.23 130.14 353.65C130.01 352.99 129.89 352.32 129.76 351.66ZM151.72 352.91C151.58 354.29 152.39 356.14 152.14 357.29C152.01 357.87 151.34 358.1 151.16 358.69C150.78 359.87 151.18 362.81 151.24 364.16C151.33 366.2 152.14 369.05 150.91 370.78C149.67 366.95 150.75 361.41 150.77 357.31C150.77 355.73 150.3 353.66 151.72 352.91ZM348.31 353.88C349.69 354.94 349.15 357.02 349.16 358.68C349.17 362.94 350.33 368.61 349.09 372.6C347.81 370.8 348.68 367.67 348.74 365.53C348.79 364.15 349.23 361.27 348.84 360.06C348.66 359.47 347.99 359.23 347.86 358.66C347.59 357.44 348.43 355.35 348.31 353.88ZM364.13 355.71C364.48 357.3 363.65 364.22 362.56 365.18C362.71 364.38 362.86 363.58 363.01 362.79C362.89 362.02 362.77 361.26 362.65 360.5C362.73 359.89 362.8 359.28 362.88 358.68C363.29 357.69 363.71 356.7 364.13 355.71ZM135.66 356.16C135.94 356.39 136.23 356.62 136.52 356.85C136.15 358.71 136.63 359.32 137.4 360.96C137.13 362.56 136.94 362.68 138.04 363.7C137.84 364.19 137.64 364.68 137.44 365.17C136.85 362.17 136.25 359.17 135.66 356.16ZM145.85 357.53C146.23 364.74 146.08 372.01 146.09 379.22C146.09 381.91 146.79 385.75 145.43 388.12C144.32 387.39 143.97 387.13 144.06 385.84C144.29 386.07 144.52 386.3 144.75 386.53C145.12 376.86 145.48 367.2 145.85 357.53ZM354.16 358.45C354.98 363.22 353.65 368.05 354.34 372.83C354.63 374.85 355.24 376.48 355.25 378.77C355.26 380.49 354.48 385.37 355.67 386.3C355.3 386.91 354.93 387.51 354.57 388.12C353.23 386.12 353.88 382.08 353.91 379.68C354.01 372.73 353.24 365.33 354.16 358.45ZM170.32 367.84C223.41 367.85 276.5 367.87 329.59 367.88C327.99 369.37 322.67 368.55 320.32 368.53C311.8 368.48 303.27 368.52 294.75 368.51C263.85 368.5 232.95 368.5 202.05 368.51C194.29 368.52 186.53 368.52 178.77 368.52C176.4 368.52 171.94 369.32 170.32 367.84ZM164.17 373.06C164.78 374.94 164.96 380.51 163.47 382.05C163.62 380.8 163.77 379.56 163.93 378.31C164.01 376.56 164.09 374.81 164.17 373.06ZM335.82 373.06C337.29 374.9 335.48 377.24 337.12 378.77C336.9 379.89 336.68 381.01 336.45 382.13C335.16 380.18 335.14 375.13 335.82 373.06ZM330.49 373.97C278.9 374.02 227.31 374.06 175.73 374.1C177.75 372.62 182.95 373.5 185.62 373.5C193.99 373.48 202.36 373.49 210.73 373.49C239.8 373.49 268.87 373.53 297.95 373.51C305.71 373.5 313.47 373.53 321.23 373.5C323.76 373.49 328.43 372.64 330.49 373.97ZM169.41 374C169.25 374.52 169.1 375.05 168.95 375.57C168.95 378.26 170.58 382.97 168.55 384.93C168.53 382.44 167.29 375.42 169.41 374ZM331.05 374.51C331.16 378.13 331.27 381.76 331.38 385.39C329.28 383.09 331.05 377.5 331.05 374.51ZM176.65 396.96C225.65 396.99 274.65 397.03 323.64 397.06C322.23 398.77 318.39 398.03 316.21 398.03C309.21 398.03 302.21 398.03 295.21 398.03C266.44 398.03 237.67 397.95 208.9 398.03C200.84 398.05 192.77 398 184.7 398.01C182.44 398.01 177.81 398.95 176.65 396.96ZM422.6 410.59C422.27 410.94 421.93 411.29 421.6 411.64C419.73 412.28 419.13 412.88 418.49 414.75C417.28 415.62 416.06 416.48 414.84 417.35C414.52 416.91 414.18 416.78 414.27 416.15C414.29 416.03 421.16 407.16 422.6 410.59ZM413.24 417.58C412.71 418.77 412.18 419.95 411.64 421.14C407.96 421.48 405.68 427.31 402.51 427.85C402.91 426.67 411.7 418.04 413.24 417.58ZM165.75 418.95C167.67 418.32 174.72 419.22 177.4 419.27C186.06 419.41 194.75 419.27 203.42 419.27C232.5 419.26 261.57 419.24 290.64 419.26C300.07 419.26 309.52 419.38 318.95 419.25C321.56 419.22 327.58 418.28 329.27 419.94C325.33 419.05 320.72 419.63 316.67 419.63C307.84 419.63 299.01 419.63 290.18 419.63C262.94 419.63 235.69 419.63 208.45 419.63C198.1 419.63 187.75 419.63 177.4 419.63C174.39 419.63 167.5 420.38 165.75 418.95ZM215.14 468.95C217.63 468.9 220.12 468.86 222.6 468.81C223.74 469.93 224.67 469.22 226.03 470.1C222.4 469.72 218.77 469.33 215.14 468.95ZM239.71 471.05C241.91 470.44 242.86 471.68 244.98 471.69C247.24 471.7 250.57 472.31 252.73 471.68C254.66 471.1 255.69 470.4 257.9 471.03C256.28 473.2 247 472.25 244.06 472.27C242.36 472.27 240.49 472.71 239.71 471.05ZM183.11 473.52C185.36 473.35 189.78 474.27 191.26 476.04C190.9 476.1 190.54 476.17 190.18 476.23C189.42 475.78 188.66 475.33 187.9 474.89C186.56 475.34 186.39 475.28 185.16 474.43C184.7 474.44 184.25 474.45 183.79 474.46C183.56 474.15 183.33 473.84 183.11 473.52ZM293.61 473.56C293.23 473.85 292.85 474.15 292.47 474.44C289.61 474.02 287.57 475.34 284.25 474.89C282.66 475.46 282.18 475.45 280.41 475.27C284.81 474.7 289.21 474.13 293.61 473.56ZM277.15 482.02C277.38 481.66 277.62 481.29 277.85 480.92C280.01 480.81 282.17 480.7 284.33 480.59C281.79 480.44 279.25 480.28 276.71 480.13C278.43 478.46 280.69 480.29 282.79 479.79C285.29 479.18 287.67 478.86 290.55 478.87C291.64 478.88 292.41 477.8 293.38 477.54C296.11 476.8 299.34 477.07 302.04 477.12C304.15 477.16 303.9 475.1 306.39 476.48C304.82 478.79 300.17 476.79 297.95 479.49C294.43 478.69 290.06 480.5 286.53 481.36C284.98 481.74 283.07 480.89 281.52 481.3C279.78 481.77 279.17 482.49 277.15 482.02ZM220.95 478.61C221.5 478.74 222.05 478.87 222.6 479C225.44 478 227.34 479.97 229.91 478.86C230.14 479.2 230.37 479.53 230.59 479.87C228.15 480.12 222.69 480.51 220.95 478.61ZM239.23 480.08C239.62 479.98 240.02 479.88 240.41 479.77C242.69 481.88 246.01 479.97 248.86 481.03C245.79 481.03 242.72 481.04 239.65 481.05C239.51 480.73 239.37 480.41 239.23 480.08ZM274.78 480.08C273.48 482.3 267.54 481.58 265.3 481.05C267.89 480.05 270.78 481.68 272.83 479.77C273.48 479.87 274.13 479.97 274.78 480.08ZM215.53 481.03C217.43 480.66 222.31 480.14 223.29 482.01C221.65 482.42 220.63 482.47 219.41 481.28C218.19 481.35 216.97 481.42 215.75 481.5C215.68 481.34 215.6 481.18 215.53 481.03ZM249.33 480.98C254.32 480.98 259.32 480.98 264.31 480.97C264.11 481.32 263.9 481.67 263.7 482.01C260.8 482.16 250.97 482.85 249.33 480.98ZM231.05 482.88C236.17 481.4 244.61 483.35 250 483.53C251.68 483.58 252.63 483.05 254.13 482.81C258.65 482.1 264.93 482.04 269.41 482.66C268.19 484.08 262 483.59 260.05 483.56C258.49 483.54 257.77 484.13 256.39 484.39C252.61 485.13 239.99 484.03 236.67 483.23C234.75 482.76 232.72 484.34 231.05 482.88Z" fill="#d4cfbf" fill-rule="evenodd" stroke="#d4cfbf" stroke-width="0.25" stroke-linejoin="round"/>
</svg>